<?xml version="1.0" encoding="utf-8"?>
<!-- Generator: Adobe Illustrator 24.0.2, SVG Export Plug-In . SVG Version: 6.00 Build 0)  -->
<svg version="1.1" id="Layer_1" xmlns="http://www.w3.org/2000/svg" xmlns:xlink="http://www.w3.org/1999/xlink" x="0px" y="0px"
	 viewBox="0 0 50 50" style="enable-background:new 0 0 50 50;" xml:space="preserve">
<style type="text/css">
	.st0{fill:#333333;}
</style>
<path class="st0" d="M38.6,5.5h-3v2.8c1,0.3,1.8,1.3,1.8,2.4c0,1.4-1.1,2.5-2.5,2.5c-1.4,0-2.5-1.1-2.5-2.5c0-1.1,0.7-2,1.7-2.4V5.5
	H26v2.8c1,0.3,1.8,1.3,1.8,2.4c0,1.4-1.1,2.5-2.5,2.5s-2.5-1.1-2.5-2.5c0-1.1,0.7-2,1.7-2.4V5.5h-8.1v2.8c1,0.3,1.8,1.3,1.8,2.4
	c0,1.4-1.1,2.5-2.5,2.5s-2.5-1.1-2.5-2.5c0-1.1,0.7-2,1.7-2.4V5.5H12c-3,0-5.4,2.4-5.4,5.4v26.6c0,3,2.4,5.4,5.4,5.4h26.6
	c3,0,5.4-2.4,5.4-5.4V10.9C44,7.9,41.6,5.5,38.6,5.5z M40.9,38.3H9.7V14.5h31.2V38.3z"/>
<g>
	<path class="st0" d="M24.7,34l-8.1-8.6c-0.7-0.7-0.6-1.8,0.1-2.5c0.7-0.7,1.8-0.6,2.5,0.1l5.5,5.8l9.4-10.2
		c0.7-0.7,1.8-0.8,2.5-0.1c0.7,0.7,0.8,1.8,0.1,2.5L24.7,34z"/>
</g>
</svg>
