<?xml version="1.0" encoding="utf-8"?>
<!-- Generator: Adobe Illustrator 24.0.2, SVG Export Plug-In . SVG Version: 6.00 Build 0)  -->
<svg version="1.1" id="Layer_1" xmlns="http://www.w3.org/2000/svg" xmlns:xlink="http://www.w3.org/1999/xlink" x="0px" y="0px"
	 viewBox="0 0 50 50" style="enable-background:new 0 0 50 50;" xml:space="preserve">
<style type="text/css">
	.st0{fill:#333333;}
</style>
<g>
	<g>
		<path class="st0" d="M4.2,24.4c0,0-0.6-7.1,5.3-7.1h10.9l7.8-4.2v22.5l-7.8-4.5v9.4h-8.2v-9.2C12.1,31.3,4.2,32.5,4.2,24.4z"/>
	</g>
</g>
<g>
	<g>
		<path class="st0" d="M30.3,39.9c-0.8,0-1.4-0.6-1.4-1.4V10.4c0-0.8,0.6-1.4,1.4-1.4c0.8,0,1.4,0.6,1.4,1.4v28.1
			C31.7,39.3,31.1,39.9,30.3,39.9z"/>
	</g>
</g>
<g>
	<g>
		<path class="st0" d="M36.4,24.2c0-3.3-1.6-6.3-4-8.3v16.5C34.8,30.5,36.4,27.6,36.4,24.2z"/>
	</g>
</g>
<g>
	<g>
		
			<rect x="36.1" y="17.1" transform="matrix(0.7071 -0.7071 0.7071 0.7071 -0.5917 34.1743)" class="st0" width="9.6" height="1.4"/>
	</g>
</g>
<g>
	<g>
		
			<rect x="40.3" y="26.3" transform="matrix(0.7071 -0.7071 0.7071 0.7071 -9.9876 38.0663)" class="st0" width="1.4" height="9.6"/>
	</g>
</g>
<g>
	<g>
		<rect x="38.2" y="23.8" class="st0" width="8.7" height="1.4"/>
	</g>
</g>
</svg>
