<?xml version="1.0" encoding="utf-8"?>
<!-- Generator: Adobe Illustrator 24.1.3, SVG Export Plug-In . SVG Version: 6.00 Build 0)  -->
<svg version="1.1" id="레이어_1" xmlns="http://www.w3.org/2000/svg" xmlns:xlink="http://www.w3.org/1999/xlink" x="0px"
	 y="0px" viewBox="0 0 100 100" style="enable-background:new 0 0 100 100;" xml:space="preserve">
<style type="text/css">
	.st0{display:none;}
	.st1{display:inline;fill-rule:evenodd;clip-rule:evenodd;fill:#BAA8A2;}
	.st2{display:inline;}
	.st3{clip-path:url(#SVGID_2_);}
	.st4{fill-rule:evenodd;clip-rule:evenodd;fill:#967F78;}
	.st5{display:inline;fill:none;}
	.st6{display:inline;fill-rule:evenodd;clip-rule:evenodd;fill:#5DA9DE;}
	.st7{display:inline;fill-rule:evenodd;clip-rule:evenodd;fill:#4A90C7;}
	.st8{display:inline;fill-rule:evenodd;clip-rule:evenodd;fill:#FFFFFF;}
	.st9{display:inline;fill-rule:evenodd;clip-rule:evenodd;fill:#E85946;}
	.st10{display:inline;fill-rule:evenodd;clip-rule:evenodd;fill:#3B5C58;}
	.st11{fill-rule:evenodd;clip-rule:evenodd;fill:#C0DBA2;}
	.st12{clip-path:url(#SVGID_4_);}
	.st13{fill-rule:evenodd;clip-rule:evenodd;fill:#98C465;}
	.st14{fill:none;}
	.st15{fill:#757575;}
	.st16{fill-rule:evenodd;clip-rule:evenodd;fill:#1271B1;}
	.st17{fill:#1271B1;}
	.st18{fill:#C73130;}
	.st19{fill:#424242;}
</style>
<g id="Layer_x0020_1" class="st0">
	<path class="st1" d="M50,0.51c27.33,0,49.49,22.16,49.49,49.49S77.33,99.49,50,99.49S0.51,77.33,0.51,50S22.67,0.51,50,0.51z"/>
	<g class="st2">
		<defs>
			<circle id="SVGID_1_" cx="50" cy="50" r="49.49"/>
		</defs>
		<clipPath id="SVGID_2_">
			<use xlink:href="#SVGID_1_"  style="overflow:visible;"/>
		</clipPath>
		<g class="st3">
			<g id="_564317888">
				<g>
					<polygon id="_5643176001" class="st4" points="77.07,50.12 131.97,105.02 124.27,105.02 69.37,50.12 					"/>
					<polygon id="_564317024" class="st4" points="69.37,50.12 124.27,105.02 123.71,104.54 68.81,49.64 					"/>
					<polygon id="_564319328" class="st4" points="68.81,49.64 123.71,104.54 123.71,127.75 68.81,72.85 					"/>
					<polygon id="_564319496" class="st4" points="31.19,49.64 86.1,104.54 85.53,105.02 30.63,50.12 					"/>
					<polygon id="_564320456" class="st4" points="30.63,50.12 85.53,105.02 77.83,105.02 22.93,50.12 					"/>
					<polygon id="_564320408" class="st4" points="53.15,72.85 108.06,127.75 98.04,127.75 43.14,72.85 					"/>
					<polygon id="_564320216" class="st4" points="43.14,72.85 98.04,127.75 97.47,127.75 42.57,72.85 					"/>
					<polygon id="_564320144" class="st4" points="42.57,72.85 97.47,127.75 86.1,127.75 31.19,72.85 					"/>
					<polygon id="_564320576" class="st4" points="68.81,72.85 123.71,127.75 108.75,127.75 53.85,72.85 					"/>
					<polygon id="_564320672" class="st4" points="53.85,72.85 108.75,127.75 108.06,127.75 53.15,72.85 					"/>
				</g>
				<polygon id="_564318008" class="st4" points="50,27.15 77.07,50.12 69.37,50.12 68.81,49.64 68.81,72.85 53.85,72.85 
					53.15,72.85 43.14,72.85 42.57,72.85 31.19,72.85 31.19,49.64 30.63,50.12 22.93,50.12 				"/>
			</g>
		</g>
	</g>
	<path class="st5" d="M50,0.51c27.33,0,49.49,22.16,49.49,49.49S77.33,99.49,50,99.49S0.51,77.33,0.51,50S22.67,0.51,50,0.51z"/>
	<polygon class="st6" points="31.19,48.52 49.57,33.36 68.81,48.52 68.81,72.85 31.19,72.85 	"/>
	<polygon class="st7" points="53.85,72.85 42.57,72.85 43.74,66.02 51.9,57.83 50.27,49.15 56.43,57.36 49.66,67.11 	"/>
	<circle class="st8" cx="50" cy="44.2" r="4.03"/>
	<circle class="st9" cx="50" cy="44.2" r="3.07"/>
	<polygon class="st8" points="43.14,72.85 44.27,66.29 52.51,58.02 51.27,51.42 55.73,57.37 48.97,67.12 53.15,72.85 	"/>
	<polygon class="st10" points="50,27.15 77.07,50.12 69.37,50.12 50,33.68 30.63,50.12 22.93,50.12 	"/>
</g>
<g id="Layer_x0020_1_1_">
	<path class="st11" d="M50,0.51c27.33,0,49.49,22.16,49.49,49.49S77.33,99.49,50,99.49S0.51,77.33,0.51,50S22.67,0.51,50,0.51z"/>
	<g>
		<defs>
			<circle id="SVGID_3_" cx="50" cy="50" r="49.49"/>
		</defs>
		<clipPath id="SVGID_4_">
			<use xlink:href="#SVGID_3_"  style="overflow:visible;"/>
		</clipPath>
		<g class="st12">
			<g id="_210305240">
				<g>
					<polygon id="_2102972721" class="st13" points="58.39,35.34 113.28,90.23 109.71,90.23 54.81,35.34 					"/>
					<polygon id="_210297536" class="st13" points="38.1,36.78 92.99,91.68 90.44,91.68 35.55,36.78 					"/>
					<polygon id="_365452832" class="st13" points="35.55,36.78 90.44,91.68 90.33,91.68 90.22,91.66 90.12,91.63 90.02,91.6 
						89.92,91.55 89.83,91.5 89.75,91.43 89.67,91.36 34.78,36.47 34.85,36.54 34.94,36.6 35.03,36.65 35.12,36.7 35.22,36.74 
						35.33,36.76 35.43,36.78 					"/>
					<polygon id="_257222000" class="st13" points="44.99,34.93 99.89,89.83 99.96,89.91 100.02,89.99 100.08,90.08 100.12,90.17 
						100.16,90.27 100.19,90.38 100.2,90.48 100.21,90.6 45.31,35.7 45.31,35.59 45.29,35.48 45.26,35.38 45.23,35.28 45.18,35.18 
						45.13,35.09 45.06,35.01 					"/>
					<polygon id="_257222120" class="st13" points="45.31,35.7 100.21,90.6 100.2,90.71 100.19,90.81 100.16,90.92 100.12,91.02 
						100.08,91.11 100.02,91.2 99.96,91.29 99.89,91.36 99.81,91.43 99.73,91.5 99.64,91.55 99.55,91.6 99.45,91.63 99.34,91.66 
						99.23,91.68 99.12,91.68 44.23,36.78 44.34,36.78 44.45,36.76 44.55,36.74 44.65,36.7 44.74,36.65 44.83,36.6 44.92,36.54 
						44.99,36.47 45.06,36.39 45.13,36.31 45.18,36.22 45.23,36.12 45.26,36.02 45.29,35.92 45.31,35.81 					"/>
					<polygon id="_257222264" class="st13" points="48.83,57.03 103.73,111.92 103.67,111.98 103.6,112.04 103.54,112.09 
						103.47,112.14 103.4,112.19 103.33,112.23 103.26,112.28 103.18,112.31 48.28,57.42 48.36,57.38 48.43,57.34 48.51,57.29 
						48.58,57.25 48.64,57.2 48.71,57.14 48.77,57.08 					"/>
					<polygon id="_257221928" class="st13" points="48.28,57.42 103.18,112.31 103.09,112.35 103,112.37 102.91,112.4 
						102.82,112.41 102.73,112.43 102.65,112.44 102.56,112.44 102.47,112.44 102.38,112.43 102.29,112.42 102.21,112.4 
						102.12,112.38 102.04,112.35 101.96,112.32 101.87,112.29 101.8,112.25 46.9,57.36 46.98,57.39 47.06,57.43 47.14,57.46 
						47.23,57.48 47.31,57.5 47.4,57.52 47.48,57.53 47.57,57.54 47.66,57.54 47.75,57.54 47.84,57.53 47.93,57.52 48.02,57.5 
						48.11,57.48 48.19,57.45 					"/>
					<polygon id="_257222288" class="st13" points="46.9,57.36 101.8,112.25 98.29,112.25 43.39,57.36 					"/>
					<polygon id="_257221904" class="st13" points="43.39,57.36 98.29,112.25 98.27,112.49 98.24,112.72 98.21,112.95 98.18,113.19 
						98.13,113.41 98.09,113.64 98.04,113.87 97.98,114.09 97.92,114.31 97.86,114.53 97.78,114.75 97.71,114.97 97.63,115.18 
						97.55,115.39 97.46,115.6 97.36,115.8 97.27,116.01 97.16,116.21 97.06,116.41 96.95,116.6 96.83,116.8 96.71,116.99 
						96.59,117.18 96.46,117.36 96.33,117.54 96.2,117.72 96.06,117.9 95.92,118.07 95.77,118.24 95.62,118.41 95.47,118.57 
						95.32,118.73 40.42,63.83 40.58,63.67 40.73,63.51 40.88,63.34 41.02,63.17 41.17,63 41.3,62.83 41.44,62.65 41.57,62.47 
						41.7,62.28 41.82,62.09 41.94,61.9 42.05,61.71 42.16,61.51 42.27,61.31 42.37,61.11 42.47,60.91 42.56,60.7 42.65,60.49 
						42.73,60.28 42.81,60.07 42.89,59.85 42.96,59.64 43.02,59.42 43.09,59.2 43.14,58.97 43.19,58.75 43.24,58.52 43.28,58.29 
						43.32,58.06 43.35,57.83 43.37,57.59 					"/>
					<polygon id="_253048032" class="st13" points="40.42,63.83 95.32,118.73 95.14,118.9 94.96,119.07 94.78,119.23 94.59,119.39 
						94.4,119.54 94.2,119.69 94,119.84 93.8,119.98 93.59,120.12 93.38,120.25 93.17,120.37 92.96,120.49 92.74,120.61 
						92.51,120.72 92.29,120.82 92.06,120.92 91.83,121.02 91.6,121.11 91.36,121.19 91.12,121.27 90.88,121.34 90.63,121.41 
						90.39,121.47 90.14,121.52 89.89,121.57 89.63,121.61 89.38,121.65 89.12,121.68 88.86,121.7 88.6,121.72 88.34,121.73 
						88.07,121.73 33.18,66.83 33.44,66.83 33.7,66.82 33.97,66.8 34.22,66.78 34.48,66.75 34.74,66.72 34.99,66.67 35.24,66.63 
						35.49,66.57 35.74,66.51 35.98,66.44 36.22,66.37 36.46,66.3 36.7,66.21 36.93,66.12 37.16,66.03 37.39,65.93 37.62,65.82 
						37.84,65.71 38.06,65.6 38.28,65.48 38.49,65.35 38.7,65.22 38.9,65.08 39.11,64.94 39.31,64.8 39.5,64.65 39.69,64.49 
						39.88,64.34 40.06,64.17 40.24,64.01 					"/>
					<polygon id="_253048176" class="st13" points="33.18,66.83 88.07,121.73 87.81,121.73 87.55,121.72 87.29,121.7 87.03,121.68 
						86.77,121.65 86.51,121.61 86.26,121.57 86.01,121.52 85.76,121.47 85.51,121.41 85.27,121.34 85.03,121.27 84.79,121.19 
						84.55,121.11 84.32,121.02 84.09,120.92 83.86,120.82 83.63,120.72 83.41,120.61 83.19,120.49 82.98,120.37 82.76,120.25 
						82.55,120.12 82.35,119.98 82.14,119.84 81.95,119.69 81.75,119.54 81.56,119.39 81.37,119.23 26.48,64.34 26.66,64.49 
						26.85,64.65 27.05,64.8 27.25,64.94 27.45,65.08 27.66,65.22 27.87,65.35 28.08,65.48 28.3,65.6 28.52,65.71 28.74,65.82 
						28.96,65.93 29.19,66.03 29.42,66.12 29.66,66.21 29.89,66.3 30.13,66.37 30.37,66.44 30.62,66.51 30.86,66.57 31.11,66.63 
						31.36,66.67 31.62,66.72 31.87,66.75 32.13,66.78 32.39,66.8 32.65,66.82 32.91,66.83 					"/>
					<polygon id="_253048248" class="st13" points="44.23,36.78 99.12,91.68 96.2,91.68 41.3,36.78 					"/>
					<polygon id="_253048368" class="st13" points="41.3,36.78 96.2,91.68 97.26,94.2 42.37,39.31 					"/>
					<polygon id="_253048416" class="st13" points="61.6,44.6 116.49,99.5 103.73,111.92 48.83,57.03 					"/>
					<polygon id="_248766120" class="st13" points="74.06,63.83 128.96,118.73 128.78,118.9 128.6,119.07 128.42,119.23 
						128.23,119.39 128.04,119.54 127.85,119.69 127.65,119.84 127.44,119.98 127.24,120.12 127.03,120.25 126.82,120.37 
						126.6,120.49 126.38,120.61 126.16,120.72 125.93,120.82 125.7,120.92 125.47,121.02 125.24,121.11 125,121.19 124.76,121.27 
						124.52,121.34 124.28,121.41 124.03,121.47 123.78,121.52 123.53,121.57 123.28,121.61 123.02,121.65 122.77,121.68 
						122.51,121.7 122.25,121.72 121.98,121.73 121.72,121.73 66.82,66.83 67.09,66.83 67.35,66.82 67.61,66.8 67.87,66.78 
						68.13,66.75 68.38,66.72 68.64,66.67 68.89,66.63 69.14,66.57 69.38,66.51 69.63,66.44 69.87,66.37 70.11,66.3 70.34,66.21 
						70.58,66.12 70.81,66.03 71.04,65.93 71.26,65.82 71.48,65.71 71.7,65.6 71.92,65.48 72.13,65.35 72.34,65.22 72.55,65.08 
						72.75,64.94 72.95,64.8 73.15,64.65 73.34,64.49 73.52,64.34 73.71,64.17 73.89,64.01 					"/>
					<polygon id="_248766144" class="st13" points="66.82,66.83 121.72,121.73 121.45,121.73 121.19,121.72 120.93,121.7 
						120.67,121.68 120.41,121.65 120.16,121.61 119.91,121.57 119.65,121.52 119.41,121.47 119.16,121.41 118.91,121.34 
						118.67,121.27 118.43,121.19 118.2,121.11 117.96,121.02 117.73,120.92 117.5,120.82 117.28,120.72 117.06,120.61 
						116.84,120.49 116.62,120.37 116.41,120.25 116.2,120.12 115.99,119.98 115.79,119.84 115.59,119.69 115.4,119.54 
						115.2,119.39 115.02,119.23 114.83,119.07 114.65,118.9 114.48,118.73 59.58,63.83 59.76,64.01 59.94,64.17 60.12,64.34 
						60.31,64.49 60.5,64.65 60.69,64.8 60.89,64.94 61.1,65.08 61.3,65.22 61.51,65.35 61.72,65.48 61.94,65.6 62.16,65.71 
						62.38,65.82 62.61,65.93 62.84,66.03 63.07,66.12 63.3,66.21 63.54,66.3 63.78,66.37 64.02,66.44 64.26,66.51 64.51,66.57 
						64.76,66.63 65.01,66.67 65.26,66.72 65.52,66.75 65.78,66.78 66.03,66.8 66.3,66.82 66.56,66.83 					"/>
					<polygon id="_248766048" class="st13" points="54.81,35.34 109.71,90.23 109.6,90.23 109.49,90.21 109.39,90.18 109.29,90.15 
						109.19,90.1 109.1,90.05 109.02,89.99 108.94,89.92 54.05,35.02 54.12,35.09 54.21,35.15 54.3,35.21 54.39,35.25 54.49,35.29 
						54.6,35.32 54.7,35.33 					"/>
					<polygon id="_366445176" class="st13" points="60.21,34 115.11,88.89 119.47,101.49 64.57,46.6 					"/>
					<polygon id="_209744584" class="st13" points="77.06,56.59 131.96,111.49 131.96,111.75 131.95,112.01 131.93,112.28 
						131.91,112.53 131.88,112.79 131.84,113.05 131.8,113.3 131.75,113.55 131.7,113.8 131.64,114.05 131.57,114.29 131.5,114.53 
						131.42,114.77 131.34,115.01 131.25,115.24 131.16,115.47 131.06,115.7 130.95,115.93 130.84,116.15 130.72,116.37 
						130.6,116.59 130.48,116.8 130.35,117.01 130.21,117.21 130.07,117.42 129.93,117.62 129.78,117.81 129.62,118 129.46,118.19 
						129.3,118.37 129.13,118.55 128.96,118.73 74.06,63.83 74.24,63.66 74.4,63.48 74.57,63.29 74.73,63.11 74.88,62.91 
						75.03,62.72 75.17,62.52 75.32,62.32 75.45,62.11 75.58,61.9 75.71,61.69 75.83,61.47 75.94,61.25 76.05,61.03 76.16,60.81 
						76.26,60.58 76.35,60.35 76.44,60.11 76.53,59.88 76.6,59.64 76.68,59.4 76.74,59.15 76.8,58.9 76.86,58.66 76.9,58.4 
						76.95,58.15 76.98,57.9 77.01,57.64 77.03,57.38 77.05,57.12 77.06,56.86 					"/>
					<polygon id="_255154688" class="st13" points="59.96,33.52 114.86,88.42 114.91,88.49 114.97,88.56 115.01,88.64 115.05,88.72 
						115.08,88.8 115.11,88.89 60.21,34 60.19,33.91 60.15,33.82 60.11,33.74 60.07,33.67 60.02,33.59 					"/>
					<polygon id="_370363312" class="st13" points="67.35,46.35 122.25,101.25 122.25,101.26 67.35,46.36 					"/>
					<polygon id="_370362640" class="st13" points="74.4,49.7 129.3,104.6 129.46,104.78 129.62,104.97 129.78,105.16 
						129.93,105.36 130.07,105.56 130.21,105.76 130.35,105.97 130.48,106.18 130.6,106.39 130.72,106.61 130.84,106.82 
						130.95,107.05 131.06,107.27 131.16,107.5 131.25,107.73 131.34,107.97 131.42,108.2 131.5,108.44 131.57,108.68 
						131.64,108.93 131.7,109.17 131.75,109.42 131.8,109.67 131.84,109.93 131.88,110.18 131.91,110.44 131.93,110.7 
						131.95,110.96 131.96,111.22 131.96,111.49 77.06,56.59 77.06,56.33 77.05,56.06 77.03,55.8 77.01,55.54 76.98,55.29 
						76.95,55.03 76.9,54.78 76.86,54.53 76.8,54.28 76.74,54.03 76.68,53.79 76.6,53.55 76.53,53.31 76.44,53.07 76.35,52.84 
						76.26,52.6 76.16,52.38 76.05,52.15 75.94,51.93 75.83,51.71 75.71,51.49 75.58,51.28 75.45,51.07 75.32,50.86 75.17,50.66 
						75.03,50.46 74.88,50.27 74.73,50.08 74.57,49.89 					"/>
				</g>
				<path id="_210305072" class="st13" d="M67.35,46.36c2.62,0.13,4.98,1.25,6.71,2.99c1.85,1.85,3,4.41,3,7.24
					c0,2.83-1.15,5.39-3,7.24c-1.85,1.85-4.41,3-7.24,3c-2.83,0-5.39-1.15-7.24-3c-1.85-1.85-3-4.41-3-7.24c0-2.83,1.15-5.39,3-7.24
					c0.85-0.85,1.85-1.55,2.95-2.06L61.6,44.6L48.83,57.03c-0.17,0.16-0.34,0.3-0.55,0.39c-0.46,0.2-0.97,0.16-1.38-0.06h-3.51
					c-0.19,2.52-1.29,4.79-2.97,6.48c-1.85,1.85-4.41,3-7.24,3c-2.83,0-5.39-1.15-7.24-3c-1.85-1.85-3-4.41-3-7.24
					c0-2.83,1.15-5.39,3-7.24c1.85-1.85,4.41-3,7.24-3c1.12,0,2.2,0.18,3.2,0.51l2.93-6.5l-1.12-2.65c-0.13-0.3-0.15-0.62-0.1-0.92
					h-2.55c-0.6,0-1.09-0.49-1.09-1.09c0-0.6,0.49-1.09,1.09-1.09h8.68c0.6,0,1.09,0.49,1.09,1.09c0,0.6-0.49,1.09-1.09,1.09H41.3
					l1.07,2.52h17.4l-1.37-3.97h-3.57c-0.6,0-1.09-0.49-1.09-1.09c0-0.6,0.49-1.09,1.09-1.09h4.34c0.51,0,0.94,0.35,1.05,0.83
					l4.36,12.6c0.56-0.12,1.13-0.2,1.72-0.23v-0.01h0.53h0.53L67.35,46.36L67.35,46.36z"/>
			</g>
		</g>
	</g>
	<path class="st14" d="M50,0.51c27.33,0,49.49,22.16,49.49,49.49S77.33,99.49,50,99.49S0.51,77.33,0.51,50S22.67,0.51,50,0.51z"/>
	<line class="st14" x1="66.82" y1="46.35" x2="66.82" y2="65.79"/>
	<polygon class="st15" points="67.35,46.35 67.35,65.79 66.29,65.79 66.29,46.35 	"/>
	<line class="st14" x1="72.81" y1="48.42" x2="60.83" y2="63.72"/>
	<polygon class="st15" points="73.23,48.74 61.25,64.04 60.42,63.4 72.4,48.09 	"/>
	<line class="st14" x1="76.26" y1="53.74" x2="57.39" y2="58.4"/>
	<polygon class="st15" points="76.38,54.25 57.51,58.91 57.26,57.89 76.13,53.23 	"/>
	<line class="st14" x1="75.69" y1="60.05" x2="57.96" y2="52.09"/>
	<polygon class="st15" points="75.47,60.53 57.74,52.57 58.17,51.61 75.9,59.57 	"/>
	<line class="st14" x1="71.35" y1="64.67" x2="62.3" y2="47.47"/>
	<polygon class="st15" points="70.88,64.92 61.83,47.71 62.76,47.22 71.81,64.42 	"/>
	<line class="st14" x1="33.22" y1="47.54" x2="33.22" y2="65.79"/>
	<polygon class="st15" points="33.75,47.54 33.75,65.79 32.69,65.79 32.69,47.54 	"/>
	<line class="st14" x1="38.85" y1="49.48" x2="27.6" y2="63.85"/>
	<polygon class="st15" points="39.26,49.8 28.01,64.17 27.18,63.52 38.43,49.16 	"/>
	<line class="st14" x1="42.08" y1="54.48" x2="24.36" y2="58.85"/>
	<polygon class="st15" points="42.2,54.99 24.49,59.36 24.24,58.34 41.95,53.96 	"/>
	<line class="st14" x1="41.54" y1="60.4" x2="24.9" y2="52.92"/>
	<polygon class="st15" points="41.33,60.88 24.68,53.41 25.11,52.44 41.76,59.92 	"/>
	<line class="st14" x1="37.47" y1="64.74" x2="28.97" y2="48.59"/>
	<polygon class="st15" points="37,64.98 28.51,48.83 29.44,48.34 37.94,64.49 	"/>
	<path class="st16" d="M48.22,53.13l12.07-11.75c0.64-0.62,1.66-0.61,2.28,0.03c0.62,0.64,0.61,1.66-0.03,2.28L48.83,57.03
		c-0.17,0.16-0.34,0.3-0.55,0.39c-0.65,0.27-1.38,0.09-1.83-0.41l-0.08,0.03l-0.16-0.38c-0.02-0.03-0.03-0.07-0.05-0.11l-0.21-0.49
		l0,0l-7.77-18.36c-0.34-0.82,0.04-1.77,0.86-2.11c0.82-0.34,1.76,0.04,2.11,0.86L48.22,53.13L48.22,53.13z"/>
	<path class="st17" d="M40.75,39.31c-0.6,0-1.09,0.49-1.09,1.09c0,0.6,0.49,1.09,1.09,1.09h20.03c0.6,0,1.09-0.49,1.09-1.09
		c0-0.6-0.49-1.09-1.09-1.09H40.75L40.75,39.31z"/>
	<path class="st18" d="M35.55,34.61c-0.6,0-1.09,0.49-1.09,1.09c0,0.6,0.49,1.09,1.09,1.09h8.68c0.6,0,1.09-0.49,1.09-1.09
		c0-0.6-0.49-1.09-1.09-1.09H35.55z"/>
	<path class="st19" d="M66.82,46.35c2.83,0,5.39,1.15,7.24,3c1.85,1.85,3,4.41,3,7.24s-1.15,5.39-3,7.24c-1.85,1.85-4.41,3-7.24,3
		c-2.83,0-5.39-1.15-7.24-3c-1.85-1.85-3-4.41-3-7.24c0-2.83,1.15-5.39,3-7.24C61.43,47.5,63.99,46.35,66.82,46.35L66.82,46.35z
		 M72.53,50.88c-1.46-1.46-3.48-2.36-5.71-2.36c-2.23,0-4.25,0.9-5.71,2.36c-1.46,1.46-2.36,3.48-2.36,5.71
		c0,2.23,0.9,4.25,2.36,5.71c1.46,1.46,3.48,2.36,5.71,2.36c2.23,0,4.25-0.9,5.71-2.36c1.46-1.46,2.36-3.48,2.36-5.71
		C74.89,54.36,73.99,52.34,72.53,50.88L72.53,50.88z"/>
	<path class="st19" d="M33.18,46.35c2.83,0,5.39,1.15,7.24,3c1.85,1.85,3,4.41,3,7.24s-1.15,5.39-3,7.24c-1.85,1.85-4.41,3-7.24,3
		c-2.83,0-5.39-1.15-7.24-3c-1.85-1.85-3-4.41-3-7.24c0-2.83,1.15-5.39,3-7.24C27.79,47.5,30.35,46.35,33.18,46.35L33.18,46.35z
		 M38.89,50.88c-1.46-1.46-3.48-2.36-5.71-2.36c-2.23,0-4.25,0.9-5.71,2.36c-1.46,1.46-2.36,3.48-2.36,5.71
		c0,2.23,0.9,4.25,2.36,5.71c1.46,1.46,3.48,2.36,5.71,2.36c2.23,0,4.25-0.9,5.71-2.36c1.46-1.46,2.36-3.48,2.36-5.71
		C41.25,54.36,40.35,52.34,38.89,50.88L38.89,50.88z"/>
	<path class="st17" d="M47.27,57.36c0.6,0,1.09-0.49,1.09-1.09c0-0.6-0.49-1.09-1.09-1.09H33.65c-0.6,0-1.09,0.49-1.09,1.09
		c0,0.6,0.49,1.09,1.09,1.09H47.27z"/>
	<path class="st17" d="M41.73,40.27c0.25-0.55,0-1.19-0.54-1.43c-0.55-0.25-1.19,0-1.43,0.54L32.4,55.68
		c-0.25,0.55,0,1.19,0.54,1.43c0.55,0.25,1.19,0,1.43-0.54L41.73,40.27L41.73,40.27z"/>
	<path class="st17" d="M54.81,33.17c-0.6,0-1.09,0.49-1.09,1.09c0,0.6,0.49,1.09,1.09,1.09h3.57l7.66,22.11
		c0.19,0.56,0.81,0.86,1.37,0.67c0.56-0.19,0.86-0.81,0.67-1.37L60.21,34c-0.12-0.48-0.54-0.83-1.05-0.83L54.81,33.17L54.81,33.17z"
		/>
</g>
</svg>
