<?xml version="1.0" encoding="utf-8"?>
<!-- Generator: Adobe Illustrator 24.1.3, SVG Export Plug-In . SVG Version: 6.00 Build 0)  -->
<svg version="1.1" id="레이어_1" xmlns="http://www.w3.org/2000/svg" xmlns:xlink="http://www.w3.org/1999/xlink" x="0px"
	 y="0px" viewBox="0 0 100 100" style="enable-background:new 0 0 100 100;" xml:space="preserve">
<style type="text/css">
	.st0{fill-rule:evenodd;clip-rule:evenodd;fill:#BAA8A2;}
	.st1{clip-path:url(#SVGID_2_);}
	.st2{fill-rule:evenodd;clip-rule:evenodd;fill:#967F78;}
	.st3{fill:none;}
	.st4{fill-rule:evenodd;clip-rule:evenodd;fill:#5DA9DE;}
	.st5{fill-rule:evenodd;clip-rule:evenodd;fill:#4A90C7;}
	.st6{fill-rule:evenodd;clip-rule:evenodd;fill:#FFFFFF;}
	.st7{fill-rule:evenodd;clip-rule:evenodd;fill:#E85946;}
	.st8{fill-rule:evenodd;clip-rule:evenodd;fill:#3B5C58;}
</style>
<g id="Layer_x0020_1">
	<path class="st0" d="M50,0.51c27.33,0,49.49,22.16,49.49,49.49S77.33,99.49,50,99.49S0.51,77.33,0.51,50S22.67,0.51,50,0.51z"/>
	<g>
		<defs>
			<circle id="SVGID_1_" cx="50" cy="50" r="49.49"/>
		</defs>
		<clipPath id="SVGID_2_">
			<use xlink:href="#SVGID_1_"  style="overflow:visible;"/>
		</clipPath>
		<g class="st1">
			<g id="_564317888">
				<g>
					<polygon id="_5643176001" class="st2" points="77.07,50.12 131.97,105.02 124.27,105.02 69.37,50.12 					"/>
					<polygon id="_564317024" class="st2" points="69.37,50.12 124.27,105.02 123.71,104.54 68.81,49.64 					"/>
					<polygon id="_564319328" class="st2" points="68.81,49.64 123.71,104.54 123.71,127.75 68.81,72.85 					"/>
					<polygon id="_564319496" class="st2" points="31.19,49.64 86.1,104.54 85.53,105.02 30.63,50.12 					"/>
					<polygon id="_564320456" class="st2" points="30.63,50.12 85.53,105.02 77.83,105.02 22.93,50.12 					"/>
					<polygon id="_564320408" class="st2" points="53.15,72.85 108.06,127.75 98.04,127.75 43.14,72.85 					"/>
					<polygon id="_564320216" class="st2" points="43.14,72.85 98.04,127.75 97.47,127.75 42.57,72.85 					"/>
					<polygon id="_564320144" class="st2" points="42.57,72.85 97.47,127.75 86.1,127.75 31.19,72.85 					"/>
					<polygon id="_564320576" class="st2" points="68.81,72.85 123.71,127.75 108.75,127.75 53.85,72.85 					"/>
					<polygon id="_564320672" class="st2" points="53.85,72.85 108.75,127.75 108.06,127.75 53.15,72.85 					"/>
				</g>
				<polygon id="_564318008" class="st2" points="50,27.15 77.07,50.12 69.37,50.12 68.81,49.64 68.81,72.85 53.85,72.85 
					53.15,72.85 43.14,72.85 42.57,72.85 31.19,72.85 31.19,49.64 30.63,50.12 22.93,50.12 				"/>
			</g>
		</g>
	</g>
	<path class="st3" d="M50,0.51c27.33,0,49.49,22.16,49.49,49.49S77.33,99.49,50,99.49S0.51,77.33,0.51,50S22.67,0.51,50,0.51z"/>
	<polygon class="st4" points="31.19,48.52 49.57,33.36 68.81,48.52 68.81,72.85 31.19,72.85 	"/>
	<polygon class="st5" points="53.85,72.85 42.57,72.85 43.74,66.02 51.9,57.83 50.27,49.15 56.43,57.36 49.66,67.11 	"/>
	<circle class="st6" cx="50" cy="44.2" r="4.03"/>
	<circle class="st7" cx="50" cy="44.2" r="3.07"/>
	<polygon class="st6" points="43.14,72.85 44.27,66.29 52.51,58.02 51.27,51.42 55.73,57.37 48.97,67.12 53.15,72.85 	"/>
	<polygon class="st8" points="50,27.15 77.07,50.12 69.37,50.12 50,33.68 30.63,50.12 22.93,50.12 	"/>
</g>
</svg>
