<?xml version="1.0" encoding="utf-8"?>
<!-- Generator: Adobe Illustrator 24.1.3, SVG Export Plug-In . SVG Version: 6.00 Build 0)  -->
<svg version="1.1" id="Layer_1" xmlns="http://www.w3.org/2000/svg" xmlns:xlink="http://www.w3.org/1999/xlink" x="0px" y="0px"
	 viewBox="0 0 50 50" style="enable-background:new 0 0 50 50;" xml:space="preserve">
<style type="text/css">
	.st0{fill:#8C8C8C;stroke:#8C8C8C;stroke-miterlimit:10;}
	.st1{fill:#EF5351;stroke:#FAFAFA;stroke-miterlimit:10;}
	.st2{fill:#FFFFFF;}
</style>
<g>
	<circle class="st0" cx="25" cy="26" r="22.5"/>
	<g>
		<circle class="st1" cx="25" cy="24" r="22.5"/>
		<g>
			<g>
				<path class="st2" d="M11,26.3c0.6,0,1.1,0.5,1.1,0.8v4.3h7l4.6-6.9l-9.2-5.2c-0.5-0.2-0.6-0.8-0.4-1.2L20.8,7
					c0.4-0.5,1-0.6,1.5-0.4l19.6,11.1c0.5,0.2,0.6,0.8,0.4,1.2l-6.7,11.2c-0.2,0.5-0.8,0.6-1.3,0.4l-7.7-4.3l-5,7.3
					c-0.2,0.2-0.5,0.5-0.8,0.5h-8.6l0.1,4.1c0,0.6-0.8,1-1.4,1c-0.6,0-1.1-0.5-1.1-0.8V27.1C9.9,26.7,10.4,26.3,11,26.3z"/>
				<path class="st2" d="M44.8,23.7c0.5,0.2,0.6,0.8,0.4,1.2l-2.9,4.8c-0.2,0.5-0.8,0.6-1.3,0.4l-2.4-1.4l3.8-6.4L44.8,23.7z"/>
			</g>
		</g>
	</g>
</g>
</svg>
