<?xml version="1.0" encoding="utf-8"?>
<!-- Generator: Adobe Illustrator 24.1.3, SVG Export Plug-In . SVG Version: 6.00 Build 0)  -->
<svg version="1.1" id="Layer_1" xmlns="http://www.w3.org/2000/svg" xmlns:xlink="http://www.w3.org/1999/xlink" x="0px" y="0px"
	 viewBox="0 0 50 50" style="enable-background:new 0 0 50 50;" xml:space="preserve">
<style type="text/css">
	.st0{fill:#8C8C8C;stroke:#8C8C8C;stroke-miterlimit:10;}
	.st1{fill:#8CC24A;stroke:#FAFAFA;stroke-miterlimit:10;}
	.st2{fill:#FFFFFF;}
</style>
<g>
	<circle class="st0" cx="25" cy="26" r="22.5"/>
	<g>
		<circle class="st1" cx="25" cy="24" r="22.5"/>
		<g>
			<path class="st2" d="M32.5,16.5c3,0,5.5-2.5,5.5-5.4c0-3-2.5-5.5-5.4-5.5s-5.5,2.6-5.5,5.5c-0.1,1.4,0.5,2.8,1.5,3.8
				C29.6,15.9,31,16.5,32.5,16.5z"/>
			<path class="st2" d="M41.9,17L41.9,17c-1.2-1.3-2.8-1.4-4.3-0.2c-0.5,0.5-1,0.8-1.6,1.3c-0.6,0.5-1.1,0.9-1.7,1.4
				c-0.1,0.1-0.2,0.1-0.2,0.1s-0.1,0-0.3-0.1l-0.6-0.4c-3.3-1.7-6.7-3.5-10.1-5.3c-1.3-0.6-2.5-0.5-3.5,0.5
				c-1.6,1.4-3.1,2.7-4.7,3.9c-0.7,0.6-1.2,1.4-1.2,2.2c-0.1,0.7,0.2,1.5,0.7,2.1c1.1,1.3,2.8,1.3,4.2,0.1c0.4-0.3,0.7-0.6,1.1-0.9
				l0.1-0.1c0.6-0.6,1.4-1.2,2.1-1.7c0.1,0,0.2,0.1,0.4,0.2c-0.8,1.4-1.6,2.7-2.4,3.9L20,24.1c-1.5,2.6-3,5.2-4.6,7.7
				c0,0.1-0.1,0.1-0.1,0.2c-0.1,0.1-0.2,0.2-0.2,0.3c-0.8,0.1-1.7,0.2-2.6,0.2c-0.9,0.1-1.7,0.2-2.7,0.3c-1.7,0.3-2.7,1.6-2.5,3.2
				c0.2,1.5,1.4,2.4,3.1,2.4c0,0,0,0,0.1,0c1-0.1,2-0.2,3.1-0.3H14c0.9-0.1,1.9-0.1,2.8-0.2c1.2,0,2.2-0.6,2.9-1.7
				C20.4,35,21,34,21.7,33c0.3-0.4,0.5-0.5,0.5-0.5c0.1,0,0.3,0.1,0.5,0.2l0.7,0.6c0.7,0.6,1.5,1.3,2.3,1.8c0.6,0.6,0.9,1,0.9,1.9
				c0.1,1.7,0.2,3.1,0.4,4.5c0.1,0.8,0.5,1.6,1.1,2.1c0.5,0.4,1,0.6,1.7,0.6c0.2,0,0.4,0,0.5,0c1.5-0.2,2.6-1.6,2.4-3.2
				c-0.2-1.8-0.4-3.8-0.5-5.9c-0.1-1.4-0.6-2.4-1.7-3.2c-0.4-0.4-0.6-0.6-0.9-0.8c-0.2-0.2-0.2-0.2-0.5-0.5c1-1.9,2.4-3.6,3.5-5.5
				l0,0c0.3,0.1,0.5,0.2,1,0.6c1.2,0.6,2.3,0.4,3.4-0.5c0.8-0.6,1.6-1.3,2.4-2l2.4-2C42.8,20.1,43,18.5,41.9,17z"/>
		</g>
	</g>
</g>
</svg>
