<?xml version="1.0" encoding="utf-8"?>
<!-- Generator: Adobe Illustrator 24.1.3, SVG Export Plug-In . SVG Version: 6.00 Build 0)  -->
<svg version="1.1" id="Layer_1" xmlns="http://www.w3.org/2000/svg" xmlns:xlink="http://www.w3.org/1999/xlink" x="0px" y="0px"
	 viewBox="0 0 50 50" style="enable-background:new 0 0 50 50;" xml:space="preserve">
<style type="text/css">
	.st0{fill:#8C8C8C;stroke:#8C8C8C;stroke-miterlimit:10;}
	.st1{fill:#43A5F9;stroke:#FAFAFA;stroke-miterlimit:10;}
	.st2{fill-rule:evenodd;clip-rule:evenodd;fill:#FFFFFE;}
	.st3{fill:#FFFFFE;}
</style>
<g>
	<circle class="st0" cx="25" cy="26" r="22.5"/>
	<g>
		<circle class="st1" cx="25" cy="24" r="22.5"/>
		<g>
			<path class="st2" d="M8.9,30.7c1.3,1,2.7,1.9,4.3,2.4c1.4,0.5,2.9,0.7,4.3,0.7c3.3-0.1,6.5-1.3,9.6-2.3c1.8-0.7,3.6-1.3,5.4-1.7
				c1.7-0.5,3.5-0.7,5.3-0.6c1.6,0.1,3.1,0.7,4.6,1.4c0.6,0.3,0.7,0.9,0.5,1.6c-0.3,0.6-0.9,0.7-1.6,0.5c-0.9-0.6-1.9-0.8-3-1
				c-1.7-0.2-3.4,0-5,0.3c-1.8,0.5-3.6,1-5.4,1.7c-0.9,0.3-1.8,0.7-2.7,0.9c-2.2,0.7-4.6,1.4-7,1.5c-4.1,0.2-7.5-0.9-10.7-3.5
				c-0.6-0.5-0.6-1.1-0.2-1.6C7.7,30.5,8.5,30.4,8.9,30.7z"/>
			<path class="st2" d="M8.9,34.9c1.3,1,2.7,1.9,4.3,2.4c1.4,0.5,2.9,0.7,4.3,0.7c3.3-0.1,6.5-1.3,9.6-2.3c1.8-0.7,3.6-1.3,5.4-1.7
				c1.7-0.5,3.5-0.7,5.3-0.6c1.6,0.1,3.1,0.7,4.6,1.4c0.6,0.3,0.7,0.9,0.5,1.6c-0.3,0.6-0.9,0.7-1.6,0.5c-0.9-0.6-1.9-0.8-3-1
				c-1.7-0.2-3.4,0-5,0.3c-1.8,0.5-3.6,1-5.4,1.7c-0.9,0.3-1.8,0.7-2.7,0.9c-2.2,0.7-4.6,1.4-7,1.5c-4.1,0.2-7.5-0.9-10.7-3.5
				c-0.6-0.5-0.6-1-0.2-1.6C7.7,34.6,8.5,34.5,8.9,34.9z"/>
			<path class="st3" d="M20.4,32.7v-6.8c0-0.5,0.3-0.7,0.7-0.7h7.7c0.5,0,0.7,0.3,0.7,0.7v3.9c0.9-0.3,1.9-0.7,2.9-0.8
				c0.9-0.2,1.8-0.5,2.7-0.6v-9c0-0.5-0.3-0.7-0.7-0.7H15.6c-0.5,0-0.7,0.3-0.7,0.7v13.3c0.8,0.2,1.8,0.2,2.6,0.2
				C18.6,33,19.5,32.9,20.4,32.7z"/>
			<path class="st3" d="M25.6,8l13.3,11l-0.6,0.6l0.6-0.6c0.3,0.2,0.3,0.7,0.1,1c-0.1,0.2-0.3,0.3-0.6,0.3l0,0H11.7
				c-0.5,0-0.7-0.3-0.7-0.7c0-0.2,0.1-0.5,0.3-0.7l13.1-11l0,0C24.8,7.8,25.2,7.8,25.6,8z"/>
		</g>
	</g>
</g>
</svg>
