<?xml version="1.0" encoding="utf-8"?>
<!-- Generator: Adobe Illustrator 24.1.3, SVG Export Plug-In . SVG Version: 6.00 Build 0)  -->
<svg version="1.1" id="Layer_1" xmlns="http://www.w3.org/2000/svg" xmlns:xlink="http://www.w3.org/1999/xlink" x="0px" y="0px"
	 viewBox="0 0 50 50" style="enable-background:new 0 0 50 50;" xml:space="preserve">
<style type="text/css">
	.st0{fill:#8C8C8C;stroke:#8C8C8C;stroke-miterlimit:10;}
	.st1{fill:#43A6F6;stroke:#FAFAFA;stroke-miterlimit:10;}
	.st2{fill:#FFFFFF;stroke:#FFFFFF;stroke-width:0.5;stroke-miterlimit:10;}
	.st3{fill:#FFFFFE;}
</style>
<g>
	<circle class="st0" cx="25" cy="26" r="22.5"/>
	<g>
		<circle class="st1" cx="25" cy="24" r="22.5"/>
		<g>
			<path class="st2" d="M39.8,17.9c-0.2,0.3-0.6,0.4-0.9,0.2l-1.1-0.7l0.1,1c0,0.3-0.2,0.7-0.6,0.7c-0.4,0-0.7-0.2-0.7-0.6l-0.2-1.9
				l-3-1.9v3.6l1.6,1c0.3,0.2,0.3,0.6,0.2,0.9c-0.2,0.2-0.3,0.2-0.6,0.2c-0.1,0-0.2,0-0.3-0.1l-1-0.4v1.3c0,0.3-0.3,0.7-0.7,0.7
				c-0.4,0-0.7-0.3-0.7-0.7V20l-0.9,0.6c-0.3,0.2-0.7,0.1-0.9-0.2c-0.2-0.3-0.1-0.7,0.2-0.9l1.6-1v-3.6l-3.2,1.8l-0.2,1.9
				c0,0.3-0.3,0.7-0.7,0.6c-0.3,0-0.6-0.3-0.6-0.7l0.1-1l-1.1,0.7c-0.3,0.2-0.7,0.1-0.9-0.2c-0.2-0.3-0.1-0.7,0.2-0.9l1.1-0.7L26,16
				c-0.1-0.1-0.2-0.2-0.2-0.2c-0.1-0.2-0.1-0.4,0-0.6c0.2-0.3,0.6-0.4,0.9-0.3l1.7,0.9l3-1.8l-3-1.8L26.9,13c-0.3,0.2-0.8,0-0.9-0.3
				c-0.1-0.3,0-0.8,0.3-0.9l1-0.6l-1.1-0.6c-0.3-0.2-0.4-0.6-0.2-0.9c0.2-0.3,0.6-0.4,0.9-0.2l1.1,0.7l-0.1-1.1
				c0-0.3,0.2-0.7,0.6-0.7c0.4,0,0.7,0.2,0.7,0.6l0.2,1.9l3,1.8V9.1l-1.6-1c-0.3-0.2-0.3-0.6-0.2-0.9C30.7,7,31.1,7,31.4,7.1
				l0.9,0.6V6.4c0-0.3,0.3-0.7,0.7-0.7c0.4,0,0.7,0.3,0.7,0.7v1.4l1-0.6c0.3-0.2,0.7-0.1,0.9,0.2c0.2,0.3,0.1,0.7-0.2,0.9l-1.6,1V13
				l3-1.8l0.2-1.9c0-0.3,0.3-0.7,0.7-0.6c0.3,0,0.7,0.3,0.6,0.7l-0.1,1l1.1-0.7c0.3-0.2,0.7-0.1,0.9,0.2c0.2,0.3,0.1,0.7-0.2,0.9
				l-1.4,0.6l1,0.6c0.4,0.1,0.4,0.6,0.4,0.8c-0.2,0.3-0.6,0.4-0.9,0.3l-1.7-0.9l-3,1.8l3,1.8l1.7-0.9c0.3-0.2,0.8,0,0.9,0.3
				c0.1,0.2,0.1,0.4,0,0.6c-0.1,0.2-0.2,0.2-0.2,0.2l-1,0.6l1.1,0.7C39.9,17.1,39.9,17.6,39.8,17.9z"/>
			<path class="st3" d="M17.5,5.8L17.5,5.8c1.2,0,2.3,0.6,3.1,1.3c0.9,0.8,1.3,1.9,1.3,3.1v18.7c0.9,0.7,1.6,1.4,2,2.4
				c0.6,1,0.9,2.2,0.9,3.4c0,2-0.9,3.9-2.2,5.2c-1.3,1.3-3.1,2.2-5.2,2.2c-2,0-3.9-0.9-5.2-2.2S10,36.9,10,34.8
				c0-1.2,0.3-2.4,0.9-3.4c0.6-1,1.1-1.8,2-2.4V10.3c0-1.2,0.6-2.3,1.3-3.1C15,6.3,16.1,5.8,17.5,5.8L17.5,5.8z M18.1,30.8v-5.9
				c0-0.4-0.3-0.8-0.8-0.8c-0.4,0-0.8,0.3-0.8,0.8v5.9c-0.9,0.1-1.6,0.6-2.1,1.1c-0.8,0.8-1.1,1.8-1.1,2.9c0,1.1,0.4,2.1,1.1,2.9
				c0.8,0.8,1.8,1.1,2.9,1.1c1.1,0,2.1-0.4,2.9-1.1c0.8-0.8,1.1-1.8,1.1-2.9c0-1.1-0.4-2.1-1.1-2.9C19.8,31.3,19,30.9,18.1,30.8z"/>
		</g>
	</g>
</g>
</svg>
