<?xml version="1.0" encoding="utf-8"?>
<!-- Generator: Adobe Illustrator 24.1.3, SVG Export Plug-In . SVG Version: 6.00 Build 0)  -->
<svg version="1.1" id="Layer_1" xmlns="http://www.w3.org/2000/svg" xmlns:xlink="http://www.w3.org/1999/xlink" x="0px" y="0px"
	 viewBox="0 0 50 50" style="enable-background:new 0 0 50 50;" xml:space="preserve">
<style type="text/css">
	.st0{fill:#8C8C8C;stroke:#8C8C8C;stroke-miterlimit:10;}
	.st1{fill:#E9534F;stroke:#FAFAFA;stroke-miterlimit:10;}
	.st2{fill:#FFFFFF;}
	.st3{fill-rule:evenodd;clip-rule:evenodd;fill:#FFFFFF;}
</style>
<g>
	<circle class="st0" cx="25" cy="26" r="22.5"/>
	<g>
		<circle class="st1" cx="25" cy="24" r="22.5"/>
		<g>
			<path class="st2" d="M27.9,22.2c0-0.4-0.3-0.7-0.7-0.7s-0.7,0.3-0.7,0.7v4.6c0,0.4,0.3,0.7,0.7,0.7c0.4,0,0.7-0.3,0.7-0.7V22.2z"
				/>
			<rect x="9.8" y="25.1" class="st3" width="1.5" height="13.6"/>
			<rect x="9.8" y="29.5" class="st3" width="23.1" height="4.9"/>
			<rect x="21.5" y="26.2" class="st3" width="11.4" height="4.4"/>
			<g>
				<path class="st2" d="M39.6,18.2c0.4,0.1,0.7-0.1,0.8-0.5c0.1-0.4-0.1-0.7-0.5-0.8l-1.5-0.4l-1.9,7.1l0,0v0.1l1.6,0.3
					c0.4,0.1,0.7-0.1,0.8-0.5c0.1-0.4-0.1-0.7-0.5-0.8L39.6,18.2z"/>
				<path class="st2" d="M43.7,21.7l-1.2,4.5l-0.7-0.3l0.7,0.2c-0.1,0.4-0.4,0.6-0.7,0.5l0,0l0,0l0,0l0,0h-0.1
					c-1.4-0.4-2.5-1.3-3.3-2.4l0,0l0,0l0,0l0,0c-0.7-1.2-0.8-2.5-0.5-4V20c0.4-1.4,1.3-2.5,2.4-3.3c1.2-0.7,2.6-0.8,4.1-0.5
					l-0.2,0.7l0.2-0.7c0.4,0.1,0.6,0.5,0.5,0.8l0,0L43.7,21.7z"/>
				
					<rect x="13.7" y="12.3" transform="matrix(0.2588 -0.9659 0.9659 0.2588 -0.4637 29.1087)" class="st3" width="10.1" height="5"/>
				
					<rect x="24.3" y="9.9" transform="matrix(0.2588 -0.9659 0.9659 0.2588 4.6574 41.4493)" class="st3" width="10.1" height="15.6"/>
			</g>
		</g>
	</g>
</g>
</svg>
