<?xml version="1.0" encoding="utf-8"?>
<!-- Generator: Adobe Illustrator 24.1.3, SVG Export Plug-In . SVG Version: 6.00 Build 0)  -->
<svg version="1.1" id="Layer_1" xmlns="http://www.w3.org/2000/svg" xmlns:xlink="http://www.w3.org/1999/xlink" x="0px" y="0px"
	 viewBox="0 0 49.2 49.2" style="enable-background:new 0 0 49.2 49.2;" xml:space="preserve">
<style type="text/css">
	.st0{opacity:0.45;}
	.st1{stroke:#000000;stroke-miterlimit:10;}
	.st2{fill:#84BC46;stroke:#FAFAFA;stroke-miterlimit:10;}
	.st3{fill:#FFFFFF;}
</style>
<g class="st0">
	<circle class="st1" cx="24.6" cy="25.6" r="22.5"/>
	<path d="M9.4,38.1h4.4c0.3,0,0.5-0.2,0.5-0.5V22.4c0-0.3-0.3-0.5-0.5-0.5H9.4c-0.3,0-0.5,0.2-0.5,0.5v15.2
		C8.8,38,9.1,38.1,9.4,38.1z"/>
	<path d="M35.4,38.1h4.4c0.3,0,0.5-0.2,0.5-0.5V22.4c0-0.3-0.3-0.5-0.5-0.5h-4.4c-0.3,0-0.5,0.2-0.5,0.5v15.2
		C34.9,38,35.1,38.1,35.4,38.1z"/>
	<path d="M22.1,38.1H27c0.3,0,0.5-0.2,0.5-0.5v-7.8c0-0.3-0.2-0.5-0.5-0.5h-4.9c-0.3,0-0.5,0.2-0.5,0.5v7.8
		C21.6,37.9,21.8,38.1,22.1,38.1z"/>
	<path d="M15.8,13.6v23.9c0,0.3,0.2,0.5,0.5,0.5h3.3c0.3,0,0.5-0.2,0.5-0.5v-8.6c0-0.6,0.5-1.2,1.2-1.2h6.3c0.6,0,1.2,0.5,1.2,1.2
		v8.6c0,0.3,0.2,0.5,0.5,0.5h3.6c0.3,0,0.5-0.2,0.5-0.5V13.6c0-0.3-0.2-0.5-0.5-0.5H16.3C16,13.1,15.8,13.3,15.8,13.6z M27.6,20.5
		H26c-0.3,0-0.5,0.2-0.5,0.5v1.6c0,0.4-0.4,0.7-0.7,0.7s-0.7-0.4-0.7-0.7v-1.5c0-0.3-0.2-0.5-0.5-0.5H22c-0.4,0-0.7-0.4-0.7-0.7
		s0.4-0.7,0.7-0.7h1.6c0.3,0,0.5-0.2,0.5-0.5v-1.6c0-0.4,0.4-0.7,0.7-0.7s0.7,0.4,0.7,0.7v1.6c0,0.3,0.2,0.5,0.5,0.5h1.6
		c0.4,0,0.7,0.4,0.7,0.7S27.9,20.5,27.6,20.5z"/>
</g>
<circle class="st2" cx="24.6" cy="23.6" r="22.5"/>
<g>
	<path class="st3" d="M9.4,36.1h4.4c0.3,0,0.5-0.2,0.5-0.5V20.4c0-0.3-0.3-0.5-0.5-0.5H9.4c-0.3,0-0.5,0.2-0.5,0.5v15.2
		C8.8,36,9.1,36.1,9.4,36.1z"/>
	<path class="st3" d="M35.4,36.1h4.4c0.3,0,0.5-0.2,0.5-0.5V20.4c0-0.3-0.3-0.5-0.5-0.5h-4.4c-0.3,0-0.5,0.2-0.5,0.5v15.2
		C34.9,36,35.1,36.1,35.4,36.1z"/>
	<path class="st3" d="M22.1,36.1H27c0.3,0,0.5-0.2,0.5-0.5v-7.8c0-0.3-0.2-0.5-0.5-0.5h-4.9c-0.3,0-0.5,0.2-0.5,0.5v7.8
		C21.6,35.9,21.8,36.1,22.1,36.1z"/>
	<path class="st3" d="M15.8,11.6v23.9c0,0.3,0.2,0.5,0.5,0.5h3.3c0.3,0,0.5-0.2,0.5-0.5v-8.6c0-0.6,0.5-1.2,1.2-1.2h6.3
		c0.6,0,1.2,0.5,1.2,1.2v8.6c0,0.3,0.2,0.5,0.5,0.5h3.6c0.3,0,0.5-0.2,0.5-0.5V11.6c0-0.3-0.2-0.5-0.5-0.5H16.3
		C16,11.1,15.8,11.3,15.8,11.6z M27.6,18.5H26c-0.3,0-0.5,0.2-0.5,0.5v1.6c0,0.4-0.4,0.7-0.7,0.7s-0.7-0.4-0.7-0.7v-1.5
		c0-0.3-0.2-0.5-0.5-0.5H22c-0.4,0-0.7-0.4-0.7-0.7s0.4-0.7,0.7-0.7h1.6c0.3,0,0.5-0.2,0.5-0.5v-1.6c0-0.4,0.4-0.7,0.7-0.7
		s0.7,0.4,0.7,0.7v1.6c0,0.3,0.2,0.5,0.5,0.5h1.6c0.4,0,0.7,0.4,0.7,0.7S27.9,18.5,27.6,18.5z"/>
</g>
</svg>
