<?xml version="1.0" encoding="utf-8"?>
<!-- Generator: Adobe Illustrator 24.1.3, SVG Export Plug-In . SVG Version: 6.00 Build 0)  -->
<svg version="1.1" id="Layer_1" xmlns="http://www.w3.org/2000/svg" xmlns:xlink="http://www.w3.org/1999/xlink" x="0px" y="0px"
	 viewBox="0 0 50 50" style="enable-background:new 0 0 50 50;" xml:space="preserve">
<style type="text/css">
	.st0{fill:#8C8C8C;stroke:#8C8C8C;stroke-miterlimit:10;}
	.st1{fill:#028491;stroke:#FAFAFA;stroke-miterlimit:10;}
	.st2{fill:#FFFFFF;}
	.st3{fill:#028491;}
</style>
<g>
	<circle class="st0" cx="25" cy="26" r="22.5"/>
	<g>
		<circle class="st1" cx="25" cy="24" r="22.5"/>
		<g>
			<path class="st2" d="M41.2,32.9L41.2,32.9v-8.3c0,0,0,0,0-0.1l-0.9-5.9c0-0.3-0.3-0.4-0.5-0.4h-7.1c-0.5,0-0.6,0.5-0.3,0.8
				l1.7,1.4c0.1,0.1,0.2,0.2,0.2,0.4v2.7c0,0.4-0.5,0.7-0.9,0.4l-1-0.9v0.8h-0.6v9.1h-0.6v-10h0.6v-1.2H31l-6.1-5.3
				c-0.2-0.2-0.5-0.2-0.7,0l-5.9,5.4h-0.8v1.2h0.7v9.9h-0.6v-8.9H17v-0.5l-1.4,1.3v-3.9c0-0.1,0.1-0.3,0.2-0.4l1.6-1.5
				c0.3-0.3,0.2-0.7-0.3-0.7H9.6c-0.3,0-0.5,0.2-0.5,0.4l-0.9,5.9c0,0,0,0,0,0.1V33H7.8v2.6c0,0.3,0.2,0.5,0.5,0.5h33.4
				c0.3,0,0.5-0.2,0.5-0.5V33L41.2,32.9L41.2,32.9z"/>
			<rect x="9.2" y="29.3" class="st3" width="3.1" height="1.9"/>
			<rect x="9.2" y="26.2" class="st3" width="3.1" height="1.9"/>
			<rect x="13.6" y="29.3" class="st3" width="3.1" height="1.9"/>
			<rect x="13.6" y="26.2" class="st3" width="3.1" height="1.9"/>
			<ellipse class="st3" cx="24.6" cy="19.9" rx="1.4" ry="1.5"/>
			<path class="st3" d="M29.6,32.9H29v-8.6c0-0.3-0.2-0.5-0.5-0.5h-7.8c-0.3,0-0.5,0.2-0.5,0.5v8.6h-0.6V23h0.6v-0.5h9v0.3h0.4
				C29.6,22.9,29.6,32.9,29.6,32.9z"/>
			<rect x="32.5" y="29.1" class="st3" width="3.1" height="1.9"/>
			<rect x="32.5" y="26" class="st3" width="3.1" height="1.9"/>
			<rect x="36.8" y="29.1" class="st3" width="3.1" height="1.9"/>
			<rect x="36.8" y="26" class="st3" width="3.1" height="1.9"/>
			<path class="st2" d="M24.6,12.6h-0.2V6.7h0.4v0.1c0.4,0.2,1.5,0.7,2-0.1c0.8-1,2,0,2,0v1.9c0,0.3-0.3,0.6-0.7,0.4
				c-0.4-0.1-0.9-0.2-1.5,0.4c-0.5,0.5-1,0.5-1.5,0.4c-0.3-0.1-0.6,0.1-0.6,0.5L24.6,12.6L24.6,12.6L24.6,12.6l8.9,7.9
				c0.1,0.1,0.2,0.2,0.2,0.4v2l-8.9-7.8c-0.2-0.2-0.5-0.2-0.6,0l-7.9,7.8v-2.1c0-0.1,0.1-0.3,0.1-0.3L24.6,12.6z"/>
		</g>
	</g>
</g>
</svg>
