<?xml version="1.0" encoding="utf-8"?>
<!-- Generator: Adobe Illustrator 24.1.3, SVG Export Plug-In . SVG Version: 6.00 Build 0)  -->
<svg version="1.1" id="Layer_1" xmlns="http://www.w3.org/2000/svg" xmlns:xlink="http://www.w3.org/1999/xlink" x="0px" y="0px"
	 viewBox="0 0 50 50" style="enable-background:new 0 0 50 50;" xml:space="preserve">
<style type="text/css">
	.st0{fill:#8C8C8C;stroke:#8C8C8C;stroke-miterlimit:10;}
	.st1{fill:#795546;stroke:#FAFAFA;stroke-miterlimit:10;}
	.st2{fill:#FFFFFF;}
</style>
<g>
	<circle class="st0" cx="25" cy="26" r="21.3"/>
	<g>
		<circle class="st1" cx="25" cy="24" r="21.3"/>
		<g>
			<path class="st2" d="M33,25.8c0.3,0,0.7,0.4,0.8,0.7s-0.4,0.7-0.7,0.7c-0.5,0-0.7-0.1-0.7-0.8C32.4,26.2,32.6,25.8,33,25.8z"/>
			<path class="st2" d="M31,21.3c0,0.1,0,0.3,0,0.4c0.1,0.4,0,0.8-0.5,0.9c-0.3,0.1-0.5,0.4-0.8,0.4c-0.3,0-0.7-0.1-0.9-0.3
				c-0.1-0.1-0.3-0.4-0.3-0.5c0-0.4,0.1-0.9,0.3-1.3c0-0.3,0.1-0.4,0.5-0.3c0.3,0.1,0.7,0.1,0.9,0.1C30.9,20.6,31,20.6,31,21.3z"/>
			<path class="st2" d="M30.7,25.4c0,0.4-0.4,0.7-0.8,0.7c-0.5,0-0.5-0.1-0.5-0.8c0-0.4,0.1-0.5,0.5-0.5
				C30.7,24.8,30.7,24.9,30.7,25.4z"/>
			<path class="st2" d="M25.7,13.7c0.8-0.3,1.4-0.5,2.2-0.8c0.3-0.1,0.5-0.1,0.6-0.1c0.1,0,0.3,0.1,0.4,0.3c0.1,0.4,0.1,0.8,0.3,1.2
				c-0.1,0.5-0.4,1.1-0.5,1.7c-0.1,0.3-0.1,0.5-0.3,0.8c-0.1,0.3-0.3,0.5-0.6,0.4c-0.6-0.3-1.3-0.4-2-0.6c-0.1,0-0.4-0.3-0.4-0.4
				c-0.1-0.6-0.1-1.2-0.3-1.7C25.4,13.8,25.5,13.7,25.7,13.7z"/>
			<path class="st2" d="M23.4,20.4c0.3-0.5,0.4-0.9,0.6-1.3c0-0.1,0.3-0.3,0.4-0.3c0.4,0,0.8,0,1.2,0.1c0.1,0,0.3,0.1,0.4,0.3
				c0.1,0.5,0.3,1.1,0.4,1.4c0,0.8-0.8,1.3-1.3,1.1c-0.4-0.1-0.8-0.4-1.2-0.5C23.5,20.9,23.3,20.8,23.4,20.4z"/>
			<path class="st2" d="M19.7,11.3c0-0.3,0.1-0.4,0.5-0.3c0.8,0.1,1.6,0.4,2.3,0.4c0.3,0,0.4,0.1,0.5,0.5c0,0.6,0.1,1.1,0.3,1.8
				c-0.1,0.1-0.1,0.3-0.4,0.4c-0.6,0.4-1.3,0.8-2,0.9c-0.4,0.3-1.7-0.8-1.7-1.1C19.4,13.2,19.5,12.1,19.7,11.3z"/>
			<path class="st2" d="M38.7,38.1c-2.5,0-5,0-7.4,0c-6.5,0-13,0-19.5,0c-0.1,0-0.2,0-0.5,0c-0.4,0-0.5-0.1-0.5-0.5
				c0-9.1,0-18.2,0-27.2c0-0.1,0-0.2,0-0.5c0.6,0.4,1.1,0.6,1.5,0.8c1.3,0.8,2.6,1.5,4,2.2c0.7,0.4,1,1,1.3,1.5
				c0.8,1.4,1.4,2.7,2.2,4.1c0.8,1.4,1.4,2.7,2.2,4.1c0.4,0.7,0.7,1.4,1.1,2.1c0.4,0.5,0.8,0.8,1.4,1.1c0.8,0.6,1.9,1.1,2.7,1.7
				c0.8,0.6,1.9,1,2.6,1.7c0.8,0.7,1.7,1.4,2.5,2.2c2.1,2,4.3,4.1,6.4,6.1c0,0,0,0.1,0.1,0.2C39,38.1,39,38.1,38.7,38.1z"/>
		</g>
	</g>
</g>
</svg>
