<?xml version="1.0" encoding="utf-8"?>
<!-- Generator: Adobe Illustrator 24.1.3, SVG Export Plug-In . SVG Version: 6.00 Build 0)  -->
<svg version="1.1" id="Layer_1" xmlns="http://www.w3.org/2000/svg" xmlns:xlink="http://www.w3.org/1999/xlink" x="0px" y="0px"
	 viewBox="0 0 50 50" style="enable-background:new 0 0 50 50;" xml:space="preserve">
<style type="text/css">
	.st0{fill:#8C8C8C;stroke:#8C8C8C;stroke-miterlimit:10;}
	.st1{fill:#8DC34A;stroke:#FAFAFA;stroke-miterlimit:10;}
	.st2{fill:#FFFFFF;}
</style>
<g>
	<circle class="st0" cx="25" cy="26" r="22.5"/>
	<g>
		<circle class="st1" cx="25" cy="24" r="22.5"/>
		<path class="st2" d="M34.2,8.3c-2.4-2.4-5.6-3.9-9.2-3.9s-6.8,1.5-9.1,3.8c-2.4,2.4-3.9,5.6-3.9,9.2c0,1.5,0.5,3.3,1.4,5.7
			c0.8,2.3,2.2,5,4,8.2c2.5,4.5,5,8.3,5.1,8.5l1.8,2.7l0.7,1l0.8-1l1.8-2.7c0-0.1,1.1-1.8,2.6-4.2c0.8-1.1,1.6-2.6,2.5-4.2
			c1.7-3.2,3.1-5.9,4-8.2c0.9-2.4,1.4-4.2,1.4-5.7C38.1,13.9,36.6,10.7,34.2,8.3z M25,23.2c-1.6,0-3.1-0.6-4.3-1.8
			c-1.1-1.1-1.8-2.7-1.8-4.3c0-1.6,0.6-3.1,1.8-4.3c1.1-1.1,2.7-1.8,4.3-1.8c1.6,0,3.1,0.6,4.3,1.8c1.1,1.1,1.8,2.7,1.8,4.2
			c-0.1,1.7-0.8,3.3-1.8,4.3C28.1,22.5,26.6,23.2,25,23.2z"/>
	</g>
</g>
</svg>
