<?xml version="1.0" encoding="utf-8"?>
<!-- Generator: Adobe Illustrator 24.1.3, SVG Export Plug-In . SVG Version: 6.00 Build 0)  -->
<svg version="1.1" id="Layer_1" xmlns="http://www.w3.org/2000/svg" xmlns:xlink="http://www.w3.org/1999/xlink" x="0px" y="0px"
	 viewBox="0 0 50 50" style="enable-background:new 0 0 50 50;" xml:space="preserve">
<style type="text/css">
	.st0{fill:#8C8C8C;stroke:#8C8C8C;stroke-miterlimit:10;}
	.st1{fill:#795548;stroke:#FAFAFA;stroke-miterlimit:10;}
	.st2{fill:#FFFFFF;}
</style>
<g>
	<circle class="st0" cx="25" cy="26" r="22.5"/>
	<g>
		<circle class="st1" cx="25" cy="24" r="22.5"/>
		<path class="st2" d="M37.8,30.2l3.2-1.7c0.2-0.1,0.4-0.4,0.4-0.8h0.1v-5c0-0.6-0.4-0.9-0.9-0.9h-2.3v-7.6l1.1,0.9
			c0.2,0.1,0.3,0.1,0.6,0.1s0.6-0.1,0.7-0.3c0.2-0.4,0.1-0.9-0.2-1.1l-9.1-6.6c-0.3-0.2-0.7-0.2-1,0l-9.1,6.6
			c-0.4,0.3-0.6,0.8-0.2,1.1c0.3,0.4,0.9,0.6,1.1,0.2l1.1-0.9V22h-4.3c-0.3,0-0.7,0.1-0.8,0.4l-1.6,3.4c-0.2,0.3-0.1,0.8,0.1,1
			l2.6,2.6L18,30.4l0.2-0.6c0.2-0.3,0.1-0.8-0.1-1L15.3,26l1.3-2.8c0.2-0.3,0.2-0.6,0-0.9c-0.2-0.3-0.4-0.4-0.7-0.4H9.3
			c-0.6,0-0.9,0.4-0.9,0.9v13.4c0,0.6,0.4,0.9,0.9,0.9h16.5c0.3,0,0.7-0.2,0.8-0.4c0.1-0.3,0.1-0.7,0-0.9l-1.3-2.8l2-2l-0.6,1.7
			c-0.1,0.2-0.1,0.4,0,0.7l1.7,3.2c0.1,0.2,0.4,0.4,0.8,0.4h11.7c0.6,0,0.9-0.4,0.9-0.9v-5c0-0.3-0.1-0.7-0.4-0.8s-0.7-0.1-0.9,0
			l-2.7,1.3L36.7,30l0.6,0.2C37.3,30.3,37.6,30.3,37.8,30.2z M32.5,22h-3.2v-5.7h3.2V22z"/>
	</g>
</g>
</svg>
