<?xml version="1.0" encoding="utf-8"?>
<!-- Generator: Adobe Illustrator 24.1.3, SVG Export Plug-In . SVG Version: 6.00 Build 0)  -->
<svg version="1.1" id="Layer_1" xmlns="http://www.w3.org/2000/svg" xmlns:xlink="http://www.w3.org/1999/xlink" x="0px" y="0px"
	 viewBox="0 0 50 50" style="enable-background:new 0 0 50 50;" xml:space="preserve">
<style type="text/css">
	.st0{fill:#8C8C8C;stroke:#8C8C8C;stroke-miterlimit:10;}
	.st1{fill:#65BC6A;stroke:#FAFAFA;stroke-miterlimit:10;}
	.st2{fill:#FFFFFF;}
</style>
<g>
	<circle class="st0" cx="25" cy="26" r="21.3"/>
	<g>
		<circle class="st1" cx="25" cy="24" r="21.3"/>
		<g>
			<g>
				<path class="st2" d="M25.7,15.1c-0.9,0-1.9,0-2.6,0c0,1.9,0,3.5,0,5.4c1.4,0.3,2.4,0.3,3.5-0.3c1.1-0.5,1.5-1.5,1.4-3
					C27.8,15.9,27,15.1,25.7,15.1z"/>
				<path class="st2" d="M35.1,8.2c-6.7,0-13.7,0-20.3,0c-2.1,0-3.2,1.1-3.2,3.2c0,6.1,0,12.6,0,18.7c0,2.4,1.5,3.5,3.5,3.5
					c3.5,0,6.7,0,10.2,0s6.7,0,10.2,0c2.1,0,3.2-1.1,3.2-3.2c0-6.1,0-12.6,0-18.7C38.6,9.2,37.5,8.2,35.1,8.2z M27.5,23.2
					c-1.4,0.3-3,0.5-4.6,0.5c0,0.9,0,1.9,0,3s0,2.1,0,3.2c-1.4,0-2.6,0-4,0c0-5.9,0-11.7,0-17.6c0.5,0,1.1-0.3,1.5-0.3
					c2.1,0,4.4-0.3,6.5,0c3,0.3,4.6,2.4,4.8,5C32.1,20.2,30.5,22.3,27.5,23.2z"/>
			</g>
			<path class="st2" d="M26.1,43.5h-2.1c-0.3,0-0.5-0.2-0.5-0.5v-7.9c0-0.3,0.2-0.5,0.5-0.5h2.1c0.3,0,0.5,0.2,0.5,0.5V43
				C26.6,43.3,26.4,43.5,26.1,43.5z"/>
		</g>
	</g>
</g>
</svg>
