<?xml version="1.0" encoding="utf-8"?>
<!-- Generator: Adobe Illustrator 24.1.3, SVG Export Plug-In . SVG Version: 6.00 Build 0)  -->
<svg version="1.1" id="Layer_1" xmlns="http://www.w3.org/2000/svg" xmlns:xlink="http://www.w3.org/1999/xlink" x="0px" y="0px"
	 viewBox="0 0 53 53" style="enable-background:new 0 0 53 53;" xml:space="preserve">
<style type="text/css">
	.st0{fill:#8C8C8C;stroke:#8C8C8C;stroke-miterlimit:10;}
	.st1{fill:#F15452;stroke:#FAFAFA;stroke-miterlimit:10;}
	.st2{fill:#FFFFFF;}
</style>
<g>
	<circle class="st0" cx="26.5" cy="27.5" r="24.1"/>
	<g>
		<circle class="st1" cx="26.5" cy="25.5" r="24.1"/>
		<g>
			<path class="st2" d="M19.4,20.5c-0.7,0.7-1.4,1.4-2.1,2.1C16,24,14.5,25.4,13,26.9c-1.5,1.4-3.3,3.3-3.9,5.8V36v0.1
				c0.9,3.6,3.3,5.8,6.8,6.8h3.3h0.1c2.6-0.8,4.4-2.4,5.8-3.9c2.2-2.2,4.4-4.3,6.5-6.3l0.4-0.4L19.8,20L19.4,20.5z"/>
			<path class="st2" d="M41.5,10.7c-1.5-1.6-3.7-2.6-5.9-2.6c-2.3-0.1-4.4,0.8-6.1,2.4c-2,1.8-3.9,3.8-5.7,5.7
				c-0.7,0.7-1.3,1.3-1.9,2c-0.2,0.2-0.2,0.2-0.6,0.7L21,19l0.3,0.3c0.6,0.6,0.9,0.9,1.3,1.5l0.3,0.4l0.4-0.2c0.1,0,0.1-0.1,0.1-0.1
				c0.1-0.1,0.2-0.1,0.3-0.3l7.6-7.6c2.4-2.4,5.6-2.5,7.9-0.2c1,1,1.7,2.4,1.7,3.8c0,1.5-0.7,2.9-1.8,4.1c-1.5,1.6-3.1,3.1-4.6,4.6
				c-0.8,0.8-1.6,1.6-2.4,2.4l-0.9,0.9l0.2,0.3c0.5,0.7,0.8,1.1,1.3,1.7l0.4,0.4l8.2-8.2C44.7,19.4,44.8,14.1,41.5,10.7z"/>
			<path class="st2" d="M32,18.3l0.6-0.7c1.5-1.8,2.5-2.7,4.5-1.3l0.3,0.3l2-2L39,14.3c-1.1-1.2-2.6-1.8-4.1-1.6
				c-1.8,0.2-3.4,1.3-4.6,3.1l-0.2,0.3l0.3,0.3c0.5,0.5,0.9,1,1.2,1.5L32,18.3z"/>
		</g>
	</g>
</g>
</svg>
