<?xml version="1.0" encoding="utf-8"?>
<!-- Generator: Adobe Illustrator 24.1.3, SVG Export Plug-In . SVG Version: 6.00 Build 0)  -->
<svg version="1.1" id="Layer_1" xmlns="http://www.w3.org/2000/svg" xmlns:xlink="http://www.w3.org/1999/xlink" x="0px" y="0px"
	 viewBox="0 0 50 50" style="enable-background:new 0 0 50 50;" xml:space="preserve">
<style type="text/css">
	.st0{fill:#8C8C8C;}
	.st1{fill:#04A9F5;}
	.st2{fill:#FBFBFB;}
	.st3{clip-path:url(#SVGID_2_);}
	.st4{fill:#FFFFFF;}
</style>
<g>
	<g>
		<circle class="st0" cx="25" cy="26" r="21.8"/>
		<path class="st0" d="M25,4.7c11.8,0,21.3,9.5,21.3,21.3S36.8,47.3,25,47.3S3.7,37.8,3.7,26S13.2,4.7,25,4.7 M25,3.7
			C12.7,3.7,2.7,13.7,2.7,26s10,22.3,22.3,22.3s22.3-10,22.3-22.3S37.3,3.7,25,3.7L25,3.7z"/>
	</g>
	<g>
		<g>
			<circle class="st1" cx="25" cy="24" r="21.8"/>
			<path class="st2" d="M25,2.7c11.8,0,21.3,9.5,21.3,21.3S36.8,45.3,25,45.3S3.7,35.8,3.7,24S13.2,2.7,25,2.7 M25,1.7
				C12.7,1.7,2.7,11.7,2.7,24s10,22.3,22.3,22.3s22.3-10,22.3-22.3S37.3,1.7,25,1.7L25,1.7z"/>
		</g>
		<g>
			<defs>
				<circle id="SVGID_1_" cx="25" cy="24" r="21.3"/>
			</defs>
			<clipPath id="SVGID_2_">
				<use xlink:href="#SVGID_1_"  style="overflow:visible;"/>
			</clipPath>
			<g class="st3">
				<path class="st4" d="M45.1,25.4C45.2,25.4,45.2,25.4,45.1,25.4c0.5-0.2,0.9-0.5,1.2-0.5v2.2h-0.1c-0.7,0.2-1.4,0.7-2.4,0.9
					c-0.2,0-0.4,0.5-0.3,1.2c0,0.5,0.2,0.7,0.4,0.7c0,0,0,0,0.1,0c1-0.2,1.7-0.7,2.3-0.9v3.1c-2.2,1.2-7.3,2.6-10.6,2.6
					s-8.4-1.3-10.6-2.4c-2.2-1.2-7.3-2.6-10.6-2.6S6,31.2,3.7,32.3v-7.4h0.1c0.3-0.2,0.8-0.2,1.2-0.5c0.2,0,0.4-0.5,0.3-1.2
					c0-0.5-0.2-0.9-0.5-0.7C4.4,22.7,4,22.7,3.7,23v-7.4C5.9,14.4,11,13,14.3,13s8.4,1.4,10.6,2.6s7.3,2.6,10.6,2.6S44,17,46.2,15.7
					v3.1h-0.1c-0.7,0.2-1.4,0.7-2.4,0.9c-0.2,0-0.4,0.5-0.3,1.2c0,0.5,0.2,0.7,0.4,0.7c0,0,0,0,0.1,0c1-0.2,1.7-0.7,2.4-0.9v2.2
					h-0.1c-0.3,0.2-0.8,0.2-1.2,0.5c-0.2,0-0.4,0.5-0.3,1.2C44.7,25.2,45,25.4,45.1,25.4z"/>
				<g>
					<path class="st1" d="M13.7,21.4c0-0.5-0.2-0.9-0.4-0.9c-0.8,0.2-1.5,0.2-2.3,0.5c-0.2,0-0.4,0.5-0.3,0.9c0,0.5,0.2,0.9,0.4,0.9
						c0,0,0,0,0.1,0c0.8-0.2,1.5-0.2,2.3-0.5C13.5,22.4,13.7,22.2,13.7,21.4z"/>
					<path class="st1" d="M9.1,17.6c-0.9,0.2-1.7,0.7-2.4,0.9c-0.2,0-0.4,0.7-0.3,1.2c0,0.5,0.2,0.7,0.4,0.7h0.1
						c0.7-0.2,1.5-0.7,2.4-0.9c0.2,0,0.4-0.5,0.3-0.9C9.6,17.8,9.4,17.3,9.1,17.6z"/>
					<path class="st1" d="M15.7,16.2c-0.8,0-1.6,0.2-2.5,0.2c-0.2,0-0.4,0.5-0.4,0.9c0,0.5,0.2,0.9,0.4,0.9l0,0
						c0.9-0.2,1.6-0.2,2.4-0.2c0.2,0,0.4-0.5,0.4-0.9S15.9,16.2,15.7,16.2z"/>
					<path class="st1" d="M15.7,24.5c-0.8,0-1.6,0.2-2.5,0.2c-0.2,0-0.4,0.5-0.4,0.9s0.2,0.9,0.4,0.9l0,0c0.9-0.2,1.6-0.2,2.4-0.2
						c0.2,0,0.4-0.5,0.4-0.9C16.1,24.8,15.9,24.5,15.7,24.5z"/>
					<path class="st1" d="M26.4,20.2c0.3,0.2,0.5,0.2,0.9,0.5c0.4,0.2,1,0.5,1.6,0.7c0,0,0,0,0.1,0c0.2,0,0.4-0.2,0.4-0.7
						s-0.1-0.9-0.3-1.2c-0.7-0.2-1.1-0.5-1.5-0.7c-0.2-0.2-0.5-0.2-0.9-0.5c-0.2,0-0.4,0.2-0.5,0.7C26,19.5,26.1,20,26.4,20.2z"/>
					<path class="st1" d="M9.1,25.8c-0.9,0.2-1.7,0.5-2.4,0.9c-0.2,0-0.4,0.7-0.3,1.2c0,0.5,0.1,0.7,0.3,0.7h0.1
						c0.7-0.2,1.5-0.7,2.4-0.9c0.2,0,0.4-0.5,0.3-0.9C9.6,26,9.4,25.8,9.1,25.8z"/>
					<path class="st1" d="M32.8,22.6c0.9,0.2,1.6,0.2,2.5,0.5l0,0c0.2,0,0.4-0.5,0.4-0.9c0-0.5-0.2-0.9-0.4-0.9
						c-0.8,0-1.6-0.2-2.4-0.5c-0.2,0-0.4,0.2-0.4,0.9C32.4,22,32.6,22.4,32.8,22.6z"/>
					<path class="st1" d="M39.5,23.1L39.5,23.1c0.8,0,1.6-0.2,2.5-0.5c0.2,0,0.4-0.5,0.4-0.9c0-0.5-0.2-0.9-0.4-0.9
						c-0.9,0.2-1.6,0.2-2.4,0.5c-0.2,0-0.4,0.5-0.4,0.9C39.1,22.6,39.3,23.1,39.5,23.1z"/>
					<path class="st1" d="M19.8,21.4c0-0.5-0.2-0.9-0.4-0.9c-0.9-0.2-1.6-0.2-2.3-0.2c-0.2,0-0.4,0.5-0.4,0.9c0,0.5,0.2,0.9,0.4,0.9
						c0.7,0,1.4,0,2.3,0.2l0,0C19.6,22.4,19.8,22.2,19.8,21.4z"/>
					<path class="st1" d="M19.8,18.3c0.8,0.2,1.6,0.2,2.4,0.5l0,0c0.2,0,0.4-0.5,0.4-0.9c0-0.5-0.1-0.9-0.3-0.9
						c-0.9-0.2-1.6-0.5-2.5-0.5c-0.2,0-0.4,0.2-0.4,0.9C19.4,17.8,19.6,18.3,19.8,18.3z"/>
					<path class="st1" d="M43.5,24.5c-0.8,0.2-1.5,0.2-2.3,0.5c-0.2,0-0.4,0.5-0.4,0.9c0,0.5,0.2,0.9,0.4,0.9l0,0
						c0.8-0.2,1.5-0.2,2.3-0.5c0.2,0,0.4-0.5,0.3-0.9C44,25.1,43.8,24.5,43.5,24.5z"/>
					<path class="st1" d="M22.4,25.3c-0.9-0.2-1.6-0.5-2.5-0.5c-0.2,0-0.4,0.2-0.4,0.9c0,0.5,0.1,0.9,0.4,0.9
						c0.8,0.2,1.6,0.2,2.4,0.5l0,0c0.2,0,0.4-0.5,0.4-0.7C22.7,25.8,22.6,25.3,22.4,25.3z"/>
					<path class="st1" d="M37.5,25.5c-0.7,0-1.4,0-2.3-0.2c-0.2,0-0.4,0.5-0.4,0.9c0,0.5,0.2,0.9,0.4,0.9c0.9,0.2,1.6,0.2,2.3,0.2
						l0,0c0.2,0,0.4-0.5,0.4-0.9S37.7,25.5,37.5,25.5z"/>
					<path class="st1" d="M41.9,29.1c-0.9,0.2-1.6,0.2-2.4,0.5c-0.2,0-0.4,0.5-0.4,0.9c0,0.5,0.2,0.9,0.4,0.9l0,0
						c0.8,0,1.6-0.2,2.5-0.5c0.2,0,0.4-0.5,0.4-0.9C42.5,29.6,42.2,29.1,41.9,29.1z"/>
					<path class="st1" d="M25.5,22.2c-0.7-0.2-1.4-0.5-2.3-0.7c-0.2,0-0.4,0.2-0.4,0.7s0.1,0.9,0.3,0.9c0.8,0.2,1.5,0.5,2.2,0.7
						c0,0,0,0,0.1,0c0.2,0,0.4-0.2,0.4-0.7C25.9,22.6,25.7,22.2,25.5,22.2z"/>
					<path class="st1" d="M35.4,29.3c-0.8,0-1.6-0.2-2.4-0.5c-0.2,0-0.4,0.2-0.4,0.9c0,0.5,0.1,0.9,0.4,0.9c0.9,0.2,1.6,0.2,2.5,0.5
						l0,0c0.2,0,0.4-0.5,0.4-0.9C35.8,29.8,35.7,29.3,35.4,29.3z"/>
					<path class="st1" d="M28.9,27.6c-0.7-0.2-1.1-0.5-1.5-0.7c-0.2-0.2-0.5-0.2-0.9-0.5c-0.2,0-0.4,0.2-0.5,0.7
						c0,0.5,0.1,0.9,0.3,1.2c0.3,0.2,0.5,0.2,0.9,0.5c0.4,0.2,1,0.5,1.6,0.7c0,0,0,0,0.1,0c0.2,0,0.4-0.2,0.4-0.7
						C29.3,28.4,29.1,27.9,28.9,27.6z"/>
					<path class="st1" d="M31.4,24.3c-0.8-0.2-1.5-0.5-2.2-0.7c-0.2,0-0.4,0.2-0.5,0.7c0,0.5,0.1,0.9,0.3,1.2
						c0.7,0.2,1.4,0.5,2.3,0.7c0,0,0,0,0.1,0c0.2,0,0.4-0.2,0.4-0.9C31.8,25.1,31.6,24.5,31.4,24.3z"/>
				</g>
			</g>
		</g>
	</g>
</g>
</svg>
