<?xml version="1.0" encoding="utf-8"?>
<!-- Generator: Adobe Illustrator 24.1.3, SVG Export Plug-In . SVG Version: 6.00 Build 0)  -->
<svg version="1.1" id="Layer_1" xmlns="http://www.w3.org/2000/svg" xmlns:xlink="http://www.w3.org/1999/xlink" x="0px" y="0px"
	 viewBox="0 0 50 50" style="enable-background:new 0 0 50 50;" xml:space="preserve">
<style type="text/css">
	.st0{fill:#8C8C8C;stroke:#8C8C8C;stroke-miterlimit:10;}
	.st1{fill:#43A6F6;stroke:#FAFAFA;stroke-miterlimit:10;}
	.st2{clip-path:url(#SVGID_2_);}
	.st3{fill:#FFFFFF;}
</style>
<g>
	<circle class="st0" cx="25" cy="26" r="21.3"/>
	<g>
		<circle class="st1" cx="25" cy="24" r="21.3"/>
		<g>
			<defs>
				<circle id="SVGID_1_" cx="25" cy="24" r="21.3"/>
			</defs>
			<clipPath id="SVGID_2_">
				<use xlink:href="#SVGID_1_"  style="overflow:visible;"/>
			</clipPath>
			<g class="st2">
				<path class="st3" d="M27.5,19.8c0.7,0.9,1.5,1.6,2.3,2.5c1.1,1.1,2.5,1.7,3.8,1.8c0.1,0,0.2,0,0.2,0c1.3,0,2.6-0.5,3.6-1.4
					l6.7-5.3L36,19.9c-1.1,0.4-2,0-2.9-1c-0.1-0.2-0.3-0.3-0.4-0.5c-0.2-0.2-0.3-0.4-0.5-0.5c-0.2-0.3-0.5-0.5-0.6-0.7l-0.1-0.1
					c-0.9-1-1.8-2.1-3-2.9c-2-1.5-4.4-1.8-7-0.9l-5.1,1.9l5.4,1.3C25.2,17.1,25.2,17.2,27.5,19.8z"/>
				<path class="st3" d="M15.2,27.3c-2,0.5-3.6,2.3-3.7,3.9l-0.2,4.1l2.9-2.9c1.7-1.7,3.6-1,6.2-0.1l6.7,2.4l-4.5-4.8
					C20.5,27.4,18,26.5,15.2,27.3z"/>
				<path class="st3" d="M41.8,25.9c-0.4,0.3-0.7,0.5-1,0.7c-0.5,0.4-0.9,0.6-1.5,1c-3.5,2.2-5.4,2-8.2-0.8
					c-0.1-0.2-0.3-0.4-0.5-0.5c-0.5-0.5-0.9-0.8-1.4-1.3c-1.4-1.4-2.8-2.7-4.3-3.9c-1.3-1-3-1.8-4.8-2.2c-4.8-0.9-7.9,2-10.5,4.9
					l-7.3,8.6l9.4-6.1c1-0.6,2.1-1.3,3.4-1.7c1.2-0.5,2.4-0.7,3.5-0.5c1.5,0.4,2.7,1.5,4,2.8c0.3,0.3,0.6,0.6,0.9,0.9
					s0.6,0.6,0.9,0.9c1.3,1.3,2.6,2.6,4.1,3.6c1.6,1.2,3.6,1.9,5.6,1.9c0.2,0,0.3,0,0.5,0c0.8,0,1.7-0.1,2.6-0.3
					c3.1-0.8,5.7-2.9,7.1-5.8l2.6-5.3L41.8,25.9z"/>
			</g>
		</g>
	</g>
</g>
</svg>
