<?xml version="1.0" encoding="utf-8"?>
<!-- Generator: Adobe Illustrator 24.1.3, SVG Export Plug-In . SVG Version: 6.00 Build 0)  -->
<svg version="1.1" id="Layer_1" xmlns="http://www.w3.org/2000/svg" xmlns:xlink="http://www.w3.org/1999/xlink" x="0px" y="0px"
	 viewBox="0 0 50 50" style="enable-background:new 0 0 50 50;" xml:space="preserve">
<style type="text/css">
	.st0{fill:#8C8C8C;stroke:#8C8C8C;stroke-miterlimit:10;}
	.st1{fill:#8CC44B;stroke:#FAFAFA;stroke-miterlimit:10;}
	.st2{fill:#FFFFFF;}
</style>
<g>
	<circle class="st0" cx="25" cy="26" r="21.3"/>
	<g>
		<circle class="st1" cx="25" cy="24" r="21.3"/>
		<path class="st2" d="M40.3,32.6c0-0.8-0.4-1.2-1-1.2h-3.1v-3.1c0-0.7-0.6-1.2-1.2-1.2h-2.9c-0.7,0-1.2,0.6-1.2,1.2v3.1H28V25h4
			c0.7,0,0.9-0.4,1-0.6c0.2-0.4,0.2-0.9,0-1.1l-1.4-2.6h0.1c0.4,0,0.9-0.3,1-0.7c0.2-0.4,0-0.9-0.2-1.2l-2.4-3.1
			c0.3-0.1,0.7-0.3,0.8-0.6c0.2-0.2,0.4-0.6,0-1.3L26,7.3c-0.4-0.6-0.9-0.7-1.2-0.7s-0.8,0-1,0.4l-5.4,6.6c-0.2,0.4-0.2,0.9,0,1.1
			c0.1,0.3,0.3,0.7,0.9,0.8l-2,2.9c-0.4,0.4-0.4,0.9-0.2,1.2c0.1,0.4,0.5,0.8,1.2,0.8l-1.3,2.6c-0.2,0.4-0.2,0.9,0,1.1
			c0.2,0.4,0.7,0.6,1,0.6h4.2v6.4h-2.8v-2.9c0-0.7-0.6-1.2-1.2-1.2h-2.9c-0.7,0-1.2,0.6-1.2,1.2v3.1h-3.3c-0.7,0-1.2,0.6-1.2,1.2
			v2.9c0,0.7,0.6,1.2,1.2,1.2h28.1c0.5,0,1.5,0,1.5-0.7L40.3,32.6z"/>
	</g>
</g>
</svg>
