<?xml version="1.0" encoding="utf-8"?>
<!-- Generator: Adobe Illustrator 24.1.3, SVG Export Plug-In . SVG Version: 6.00 Build 0)  -->
<svg version="1.1" id="Layer_1" xmlns="http://www.w3.org/2000/svg" xmlns:xlink="http://www.w3.org/1999/xlink" x="0px" y="0px"
	 viewBox="0 0 50 50" style="enable-background:new 0 0 50 50;" xml:space="preserve">
<style type="text/css">
	.st0{fill:#8C8C8C;stroke:#8C8C8C;stroke-miterlimit:10;}
	.st1{fill:#FE5721;stroke:#FAFAFA;stroke-miterlimit:10;}
	.st2{fill:#FFFFFF;}
	.st3{fill:#FE5721;}
</style>
<g>
	<circle class="st0" cx="25" cy="26" r="21.3"/>
	<g>
		<circle class="st1" cx="25" cy="24" r="21.3"/>
		<g>
			<g>
				<polygon class="st2" points="30.4,8.4 32.1,9.1 30.5,13.4 28.8,12.6 				"/>
				<rect x="24" y="7.7" class="st2" width="1.8" height="4.6"/>
				<polygon class="st2" points="19.7,8.4 21.4,12.6 19.6,13.4 17.9,9.1 				"/>
				<polygon class="st2" points="14.3,11.5 17.3,14.9 15.9,16.3 12.9,12.9 				"/>
				<path class="st2" d="M35.7,40.3H14.4v-4.1c0-1.3,0.9-2.5,2-2.8V24c0-4.8,4-8.6,8.6-8.6s8.7,3.9,8.7,8.6v9.3c1.2,0.5,2,1.5,2,2.8
					C35.7,36.1,35.7,40.3,35.7,40.3z"/>
				<polygon class="st2" points="34.1,16.2 32.7,14.9 35.7,11.5 37.1,12.9 				"/>
			</g>
			<path class="st3" d="M30.6,25.7c0-3.1-2.5-5.6-5.6-5.6s-5.6,2.5-5.6,5.6V30h11.2L30.6,25.7L30.6,25.7z M25.8,28.8h-1.5v-1.5h1.5
				V28.8z M25.8,26.1h-1.5v-4.3h1.5V26.1z"/>
		</g>
	</g>
</g>
</svg>
