<?xml version="1.0" encoding="utf-8"?>
<!-- Generator: Adobe Illustrator 24.1.3, SVG Export Plug-In . SVG Version: 6.00 Build 0)  -->
<svg version="1.1" id="Layer_1" xmlns="http://www.w3.org/2000/svg" xmlns:xlink="http://www.w3.org/1999/xlink" x="0px" y="0px"
	 viewBox="0 0 50 50" style="enable-background:new 0 0 50 50;" xml:space="preserve">
<style type="text/css">
	.st0{fill:#8C8C8C;stroke:#8C8C8C;stroke-miterlimit:10;}
	.st1{fill:#04A9F5;stroke:#FAFAFA;stroke-miterlimit:10;}
	.st2{fill:#FFFFFF;}
</style>
<g>
	<circle class="st0" cx="25" cy="26" r="21.3"/>
	<g>
		<circle class="st1" cx="25" cy="24" r="21.3"/>
		<g>
			<path class="st2" d="M36.4,31.2c-0.3-0.8-0.6-1.4-0.9-2.2L35,27.7l-0.5,0.5c-0.1,0.1-0.3,0.3-0.4,0.5c-1,2-1.9,4.2-2.6,6.5
				c-0.3,0.9-0.4,1.5-0.2,2.3c0.2,1.1,0.9,2.2,1.9,2.6c0.5,0.3,1,0.4,1.6,0.4c0.5,0,1-0.1,1.5-0.4l0,0c1.7-0.8,2.6-2.8,2-4.4
				C37.7,34.4,37.2,32.8,36.4,31.2z"/>
			<path class="st2" d="M39,25.2L39,25.2v-3.5c0-1.2-0.5-2.3-1.3-3.1c-1.1-1.1-2.5-1.6-4.2-1.6h-6v-1.4c0-1-0.7-1.6-1.8-1.6h-1.9
				v-0.5c0-0.2,0.2-0.4,0.4-0.4h4.9c0,0,0.1,0.1,0.2,0.1c0.9,0.9,2.2,0.9,3,0.3c1-0.7,1.4-2,0.9-3.1c-0.5-0.9-1.2-1.1-1.8-1.3h-0.9
				l-0.1,0.1c-0.1,0-0.2,0.1-0.3,0.1c-0.4,0.2-0.7,0.3-1,0.7h-4.9c-0.4-0.4-0.9-0.7-1.4-0.9h-0.9l-0.1,0.1c-0.1,0-0.2,0.1-0.3,0.1
				c-0.4,0.2-0.7,0.3-1,0.7h-5.4c-0.4-0.4-0.9-0.7-1.4-0.9H13h-0.3c-1.1,0.4-1.7,1.1-1.8,2.3c0,1,0.6,2,1.5,2.4
				c1.4,0.4,2.3-0.1,2.6-0.7h5.6c0.1,0,0.2,0.2,0.3,0.2c0,0.1,0,0.4,0,0.6l0,0h-2.3c-0.9,0-1.5,0.7-1.5,1.5v1.5H9.3V24h8.8
				c0.3,0,0.4,0,0.5,0.2c1.3,2.5,4.1,2.7,6.1,1.8c0.8-0.5,1.5-1.1,2-2l0,0h3.2c0.1,0,0.3,0.1,0.3,0.2c0.1,0.3,0.2,0.6,0.3,0.9
				c0,0,0,0.1-0.1,0.1c0,0,0,0.1-0.1,0.1c-0.1,0.1-0.3,0.3-0.3,0.6c-0.1,0.5,0.1,0.9,0.4,1.2c0.3,0.4,0.8,0.6,1.3,0.6h6.8h0.1
				c0.6-0.1,0.9-0.6,1.1-1.2v-0.1C39.7,25.6,39.3,25.3,39,25.2z"/>
		</g>
	</g>
</g>
</svg>
