<?xml version="1.0" encoding="utf-8"?>
<!-- Generator: Adobe Illustrator 24.1.3, SVG Export Plug-In . SVG Version: 6.00 Build 0)  -->
<svg version="1.1" id="Layer_1" xmlns="http://www.w3.org/2000/svg" xmlns:xlink="http://www.w3.org/1999/xlink" x="0px" y="0px"
	 viewBox="0 0 50 50" style="enable-background:new 0 0 50 50;" xml:space="preserve">
<style type="text/css">
	.st0{fill:#8C8C8C;stroke:#8C8C8C;stroke-miterlimit:10;}
	.st1{fill:#65BC68;stroke:#FAFAFA;stroke-miterlimit:10;}
	.st2{fill:#FFFFFF;}
	.st3{fill:#65BC68;}
</style>
<g>
	<circle class="st0" cx="25" cy="26" r="21.3"/>
	<g>
		<circle class="st1" cx="25" cy="24" r="21.3"/>
		<g>
			<path class="st2" d="M43.7,29.8c0.4,0,0.6,0.4,0.6,0.7s-0.4,0.7-0.6,0.7H6.5c-0.4,0-0.6-0.4-0.6-0.7s0.4-0.7,0.6-0.7h1.7L6.6,28
				c-0.2-0.3-0.2-0.7,0-1c0.2-0.3,0.6-0.3,0.9,0l1.6,1.7L16.3,14c0.1-0.3,0.4-0.4,0.6-0.4h17.5c0.2,0,0.5,0.1,0.6,0.4l7.3,14.7
				l1.6-1.7c0.2-0.3,0.6-0.3,0.9,0c0.2,0.3,0.2,0.7,0,1l-1.4,1.7C43.3,29.8,43.7,29.8,43.7,29.8z"/>
			<polygon class="st3" points="28.3,28.3 39.5,28.3 33.9,17.1 			"/>
			<path class="st2" d="M34.4,20.5v5.9c0,0.2-0.3,0.5-0.6,0.5s-0.6-0.2-0.6-0.5v-5.9c0-0.2,0.3-0.5,0.6-0.5S34.4,20.3,34.4,20.5z"/>
		</g>
	</g>
</g>
</svg>
