<?xml version="1.0" encoding="utf-8"?>
<!-- Generator: Adobe Illustrator 24.1.3, SVG Export Plug-In . SVG Version: 6.00 Build 0)  -->
<svg version="1.1" id="Layer_1" xmlns="http://www.w3.org/2000/svg" xmlns:xlink="http://www.w3.org/1999/xlink" x="0px" y="0px"
	 viewBox="0 0 50 50" style="enable-background:new 0 0 50 50;" xml:space="preserve">
<style type="text/css">
	.st0{fill:#8C8C8C;stroke:#8C8C8C;stroke-miterlimit:10;}
	.st1{fill:#009688;stroke:#FAFAFA;stroke-miterlimit:10;}
	.st2{fill:#FFFFFF;}
	.st3{fill:#009688;}
</style>
<g>
	<circle class="st0" cx="25" cy="26" r="21.3"/>
	<g>
		<circle class="st1" cx="25" cy="24" r="21.3"/>
		<g>
			<g>
				<path class="st2" d="M6,20.3c0.3,0.8,0.9,0.9,1.4,0.9h0.8v12.4c0,0.8,0.5,1.2,1.2,1.2h17.9c0.2,0,0.5,0,0.9-0.2
					c0.4-0.3,0.6-0.7,0.6-1.2v-12c0,0,0,0,0-0.1h1c0.7,0,1.1-0.3,1.2-0.8c0.3-0.6-0.3-1.1-0.5-1.3L19.5,9.6c-0.8-0.7-1.3-0.7-1.9,0
					l-0.8,0.7c-1.7,1.4-3.3,2.9-5,4.3l-0.1,0.1c-0.1,0.1-0.2,0.2-0.3,0.4c-0.1,0.3-0.1,0.5,0,0.9c0.4,0.8,1,0.9,1.3,0.8l0.2-0.1
					c0.1-0.1,0.2-0.1,0.3-0.2c1.1-1.1,2.2-2,3.3-3l2-1.7c3,2.7,5.6,5.1,9,8c-3.2,0-6.1,0-9.1-0.1c-3,0-5.8-0.1-9-0.1l0.1-0.1
					c0.2-0.2,0.3-0.3,0.5-0.5l0.2-0.2c0.3-0.3,0.5-0.5,0.7-0.8l0.1-0.1c0.1-0.2,0-0.5,0-0.7c-0.4-0.8-1.1-0.8-1.5-0.7
					c-0.1,0.1-0.4,0.2-0.5,0.3c-1,0.6-1.7,1.3-2.6,2.1C6.5,19,5.8,19.5,6,20.3z"/>
				<path class="st2" d="M30.3,29c-0.3,0.1-0.8,0.4-0.8,1c0,0.3,0.1,0.7,0.3,0.9c1.1,1.2,2.2,2.5,3.2,3.5c0.2,0.2,0.5,0.3,0.8,0.4
					c0.1,0,0.1,0,0.2,0c0,0,0,0,0.1,0c0.3,0,0.5-0.1,0.8-0.4c0.2-0.3,0.4-0.4,0.3-0.9c-0.1-0.4-0.2-0.6-0.4-0.8l-3.2-3.4l0,0
					c-0.1-0.1-0.3-0.3-0.6-0.4C31,28.9,30.7,28.8,30.3,29z"/>
				<path class="st2" d="M39.3,33.1c-0.1-0.3-0.3-0.5-0.3-0.6c-1-1.1-2-2.1-3-3.2L35.6,29c-0.9-0.9-1.6-1.7-2.5-2.7
					c-0.2-0.2-0.3-0.3-0.4-0.4c-0.5-0.5-1.1-0.4-1.6,0.1c-0.4,0.4-0.4,0.9-0.2,1.2c0.1,0.3,0.3,0.5,0.4,0.6c1,1.1,1.9,2.1,2.9,3.2
					l0.1,0.1c1,1.1,1.9,2,2.9,3.1c0.1,0.1,0.4,0.4,0.9,0.4l0,0c0.1,0,0.1,0,0.2,0c0,0,0,0,0.1,0c0.2,0,0.3,0,0.5-0.1
					c0.4-0.2,0.6-0.7,0.6-1C39.3,33.5,39.3,33.3,39.3,33.1z"/>
				<path class="st2" d="M42.9,32.4c-0.1-0.2-0.2-0.3-0.2-0.3c-1.3-1.4-2.8-3-4.1-4.4l-0.2-0.2c-1.3-1.4-2.7-2.9-4-4.3l-0.2-0.2
					c-0.3-0.3-0.7-0.3-0.8-0.3h-0.1l0,0c-0.2,0-0.5,0.1-0.7,0.4c-0.1,0.1-0.4,0.4-0.4,0.9c0,0.2,0.1,0.5,0.4,0.8l0.2,0.2
					c1.2,1.3,2.5,2.6,3.6,3.9l0.4,0.5c1.3,1.4,2.7,3,4.1,4.4l0.3,0.3l0.1,0.1c0.2,0.1,0.4,0.2,0.6,0.2c0,0,0,0,0.1,0
					c0.2,0,0.4-0.1,0.5-0.2c0.4-0.3,0.6-0.7,0.6-1.2C43.1,33,43.1,32.8,42.9,32.4z"/>
			</g>
			<path class="st3" d="M23.6,23.8h-4.8c-0.1,0-0.1,0-0.2,0c-0.3,0.1-0.7,0.3-0.7,0.8c-0.2,0.6,0.1,0.9,0.4,1.1
				c0.1,0.1,0.2,0.1,0.3,0.1h4.5v3.7h-8.7v-3.6h0.8c0.6,0,1-0.4,1-1c0-0.6-0.4-1-1-1H14c-1,0-1.4,0.6-1.4,1.4v4.5
				c0,1,0.6,1.4,1.4,1.4h9.5c1,0,1.4-0.6,1.4-1.4v-4.5C25,24.3,24.5,23.8,23.6,23.8z"/>
		</g>
	</g>
</g>
</svg>
