<?xml version="1.0" encoding="utf-8"?>
<!-- Generator: Adobe Illustrator 21.0.2, SVG Export Plug-In . SVG Version: 6.00 Build 0)  -->
<svg version="1.1" id="Layer_1" xmlns="http://www.w3.org/2000/svg" xmlns:xlink="http://www.w3.org/1999/xlink" x="0px" y="0px"
	 viewBox="0 0 50 50" style="enable-background:new 0 0 50 50;" xml:space="preserve">
<style type="text/css">
	.st0{clip-path:url(#SVGID_2_);fill:#263997;}
</style>
<g>
	<defs>
		<rect id="SVGID_1_" width="50" height="50"/>
	</defs>
	<clipPath id="SVGID_2_">
		<use xlink:href="#SVGID_1_"  style="overflow:visible;"/>
	</clipPath>
	<path class="st0" d="M13.8,19.1c0,0.5,0.4,0.9,0.9,0.9h21.4c0.5,0,0.9-0.4,0.9-0.9c0-0.5-0.4-0.9-0.9-0.9H14.6
		C14.2,18.2,13.8,18.6,13.8,19.1"/>
	<path class="st0" d="M49.5,17.8c0-3.1-2.3-6.5-5.6-6.5c-0.5,0-0.9,0.4-0.9,0.9s0.4,0.9,0.9,0.9c2.2,0,3.9,2.5,3.9,4.7
		c0,2.2-1.8,4-4,4H18.2c-0.5,0-0.9,0.4-0.9,0.9s0.4,0.9,0.9,0.9h25.5C46.9,23.6,49.5,21,49.5,17.8"/>
	<path class="st0" d="M47.7,32.2c0-3.2-2.5-6.9-5.8-6.9H11.1c-0.5,0-0.9,0.4-0.9,0.9s0.4,0.9,0.9,0.9H42c2.1,0,4,2.9,4,5.1
		c0,2.3-1.7,4.1-3.9,4.1c-0.5,0-0.9,0.4-0.9,0.9s0.4,0.9,0.9,0.9C45.2,38.2,47.7,35.5,47.7,32.2"/>
	<path class="st0" d="M4.8,19.1c0,0.5,0.4,0.9,0.9,0.9h5.4c0.5,0,0.9-0.4,0.9-0.9c0-0.5-0.4-0.9-0.9-0.9H5.7
		C5.2,18.2,4.8,18.6,4.8,19.1"/>
	<path class="st0" d="M2.2,27.1h5.4c0.5,0,0.9-0.4,0.9-0.9c0-0.5-0.4-0.9-0.9-0.9H2.2c-0.5,0-0.9,0.4-0.9,0.9
		C1.3,26.7,1.7,27.1,2.2,27.1"/>
	<path class="st0" d="M9.3,23.6h5.4c0.5,0,0.9-0.4,0.9-0.9s-0.4-0.9-0.9-0.9H9.3c-0.5,0-0.9,0.4-0.9,0.9S8.8,23.6,9.3,23.6"/>
</g>
</svg>
