<?xml version="1.0" encoding="utf-8"?>
<!-- Generator: Adobe Illustrator 21.0.2, SVG Export Plug-In . SVG Version: 6.00 Build 0)  -->
<svg version="1.1" id="Layer_1" xmlns="http://www.w3.org/2000/svg" xmlns:xlink="http://www.w3.org/1999/xlink" x="0px" y="0px"
	 viewBox="0 0 50 50" style="enable-background:new 0 0 50 50;" xml:space="preserve">
<style type="text/css">
	.st0{clip-path:url(#SVGID_2_);fill:#263997;}
</style>
<g>
	<defs>
		<rect id="SVGID_1_" width="50" height="50"/>
	</defs>
	<clipPath id="SVGID_2_">
		<use xlink:href="#SVGID_1_"  style="overflow:visible;"/>
	</clipPath>
	<path class="st0" d="M24.5,27.9c0-0.5-0.4-0.9-0.9-0.9H2.2c-0.5,0-0.9,0.4-0.9,0.9c0,0.5,0.4,0.9,0.9,0.9h21.4
		C24.1,28.8,24.5,28.4,24.5,27.9"/>
	<path class="st0" d="M39.5,14.5c-0.5,0-0.9,0.4-0.9,0.9s0.4,0.9,0.9,0.9c4.3,0,8.1,4.3,8.1,8.9c0,4.2-3.4,8.9-8,8.9H18.3
		c-0.5,0-0.9,0.4-0.9,0.9c0,0.5,0.4,0.9,0.9,0.9h21.3c5.2,0,9.8-5,9.8-10.7C49.4,19.6,44.7,14.5,39.5,14.5"/>
	<path class="st0" d="M31.5,32.3c3.2,0,5.8-3.6,5.8-6.7c0-3.3-2.6-6-5.7-6c-0.5,0-0.9,0.4-0.9,0.9s0.4,0.9,0.9,0.9
		c2.1,0,3.9,1.9,3.9,4.2c0,2.2-1.8,4.9-4,4.9H9.4c-0.5,0-0.9,0.4-0.9,0.9s0.4,0.9,0.9,0.9H31.5z"/>
	<path class="st0" d="M11.8,18.1c0,0.5,0.4,0.9,0.9,0.9s0.9-0.4,0.9-0.9c0-0.5-0.4-0.9-0.9-0.9S11.8,17.6,11.8,18.1"/>
	<path class="st0" d="M20.7,18.1c0,0.5,0.4,0.9,0.9,0.9s0.9-0.4,0.9-0.9c0-0.5-0.4-0.9-0.9-0.9S20.7,17.6,20.7,18.1"/>
	<path class="st0" d="M18.9,14.5c0-0.5-0.4-0.9-0.9-0.9s-0.9,0.4-0.9,0.9c0,0.5,0.4,0.9,0.9,0.9S18.9,15,18.9,14.5"/>
	<path class="st0" d="M26,14.5c0,0.5,0.4,0.9,0.9,0.9s0.9-0.4,0.9-0.9c0-0.5-0.4-0.9-0.9-0.9S26,14,26,14.5"/>
	<path class="st0" d="M17.1,21.6c0-0.5-0.4-0.9-0.9-0.9s-0.9,0.4-0.9,0.9c0,0.5,0.4,0.9,0.9,0.9S17.1,22.1,17.1,21.6"/>
	<path class="st0" d="M8.2,14.5c0,0.5,0.4,0.9,0.9,0.9S10,15,10,14.5c0-0.5-0.4-0.9-0.9-0.9S8.2,14,8.2,14.5"/>
</g>
</svg>
