<?xml version="1.0" encoding="utf-8"?>
<!-- Generator: Adobe Illustrator 21.0.2, SVG Export Plug-In . SVG Version: 6.00 Build 0)  -->
<svg version="1.1" id="Layer_1" xmlns="http://www.w3.org/2000/svg" xmlns:xlink="http://www.w3.org/1999/xlink" x="0px" y="0px"
	 viewBox="0 0 50 50" style="enable-background:new 0 0 50 50;" xml:space="preserve">
<style type="text/css">
	.st0{clip-path:url(#SVGID_2_);fill:#FFFFFF;}
</style>
<g>
	<defs>
		<rect id="SVGID_1_" width="50" height="50"/>
	</defs>
	<clipPath id="SVGID_2_">
		<use xlink:href="#SVGID_1_"  style="overflow:visible;"/>
	</clipPath>
	<path class="st0" d="M37.9,27.4h-25c-0.5,0-0.9,0.4-0.9,0.9c0,0.5,0.4,0.9,0.9,0.9h25c0.5,0,0.9-0.4,0.9-0.9
		C38.8,27.8,38.4,27.4,37.9,27.4"/>
	<path class="st0" d="M37.9,23.9h-25c-0.5,0-0.9,0.4-0.9,0.9s0.4,0.9,0.9,0.9h25c0.5,0,0.9-0.4,0.9-0.9S38.4,23.9,37.9,23.9"/>
	<path class="st0" d="M37.9,20.3h-25c-0.5,0-0.9,0.4-0.9,0.9s0.4,0.9,0.9,0.9h25c0.5,0,0.9-0.4,0.9-0.9S38.4,20.3,37.9,20.3"/>
</g>
</svg>
