<?xml version="1.0" encoding="utf-8"?>
<!-- Generator: Adobe Illustrator 21.0.2, SVG Export Plug-In . SVG Version: 6.00 Build 0)  -->
<svg version="1.1" id="Layer_1" xmlns="http://www.w3.org/2000/svg" xmlns:xlink="http://www.w3.org/1999/xlink" x="0px" y="0px"
	 viewBox="0 0 50 50" style="enable-background:new 0 0 50 50;" xml:space="preserve">
<style type="text/css">
	.st0{clip-path:url(#SVGID_2_);fill:#263997;}
	.st1{clip-path:url(#SVGID_2_);fill:none;stroke:#263997;stroke-width:0.3;stroke-miterlimit:10;}
</style>
<g>
	<defs>
		<rect id="SVGID_1_" width="50" height="50"/>
	</defs>
	<clipPath id="SVGID_2_">
		<use xlink:href="#SVGID_1_"  style="overflow:visible;"/>
	</clipPath>
	<path class="st0" d="M41.2,24.6c0-8.7-7.1-15.8-15.8-15.8S9.5,15.8,9.5,24.6s7.1,15.8,15.8,15.8S41.2,33.3,41.2,24.6 M40.2,24h-6.3
		c-0.1-3.2-0.6-6.2-1.5-8.6c1-0.5,2-1.1,2.9-1.9C38.2,16.2,40.1,19.9,40.2,24 M25.9,9.8c2.1,0.3,3.9,2.2,5.2,5.2
		c-1.6,0.7-3.4,1.1-5.2,1.1V9.8z M24.9,9.8V16c-1.8-0.1-3.5-0.4-5.2-1.1C21,12,22.8,10,24.9,9.8 M24.9,17.1v7h-7
		c0.1-3,0.6-5.9,1.4-8.2C21.1,16.6,23,17,24.9,17.1 M24.9,25.1v7.4c-1.9,0.1-3.7,0.4-5.4,1.1c-0.9-2.4-1.5-5.3-1.5-8.5H24.9z
		 M24.9,33.5v5.9c-2-0.3-3.8-2.1-5-4.8C21.5,33.9,23.1,33.5,24.9,33.5 M25.9,39.3v-5.9c1.7,0.1,3.4,0.4,5,1.1
		C29.6,37.3,27.9,39.1,25.9,39.3 M25.9,32.5v-7.4h7c-0.1,3.2-0.6,6.2-1.6,8.5C29.6,32.9,27.8,32.5,25.9,32.5 M25.9,24v-7
		c1.9-0.1,3.8-0.5,5.5-1.2c0.8,2.3,1.4,5.1,1.4,8.2H25.9z M34.5,12.9c-0.8,0.6-1.6,1.1-2.5,1.6c-0.8-1.8-1.8-3.3-3-4.3
		C31.1,10.7,32.9,11.6,34.5,12.9 M18.8,14.5c-0.9-0.4-1.7-1-2.5-1.6c1.6-1.3,3.5-2.2,5.5-2.7C20.6,11.2,19.6,12.7,18.8,14.5
		 M15.5,13.6c0.9,0.7,1.9,1.4,2.9,1.9c-0.9,2.4-1.4,5.4-1.5,8.6h-6.3C10.7,19.9,12.6,16.2,15.5,13.6 M10.6,25.1h6.3
		c0.1,3.4,0.6,6.4,1.6,8.9c-1,0.5-2,1.1-2.8,1.7C12.7,33.1,10.7,29.3,10.6,25.1 M16.5,36.4c0.8-0.6,1.6-1.1,2.4-1.5
		c0.8,1.7,1.7,3,2.8,4C19.8,38.4,18,37.6,16.5,36.4 M31.9,35c0.8,0.4,1.6,0.9,2.4,1.5c-1.5,1.1-3.3,2-5.2,2.5
		C30.1,38,31.1,36.6,31.9,35 M35.1,35.8c-0.9-0.7-1.8-1.3-2.8-1.7c1-2.5,1.6-5.6,1.6-9h6.3C40.1,29.3,38.1,33.2,35.1,35.8 M40.8,40
		c4.1-4.1,6.4-9.6,6.4-15.4c0-12-9.8-21.8-21.8-21.8S3.6,12.5,3.6,24.6c0,11.1,8.3,20.4,19.2,21.7l0.1-1C12.5,44,4.6,35.1,4.6,24.6
		c0-11.5,9.3-20.8,20.8-20.8c11.5,0,20.8,9.3,20.8,20.8c0,5.5-2.2,10.7-6,14.6c-2.2-0.8-4.1-0.8-5.6,0.2c-3,1.9-3.4,6.5-3.4,6.7
		c0,0.2,0.1,0.5,0.4,0.5c0.1,0,0.8,0.2,1.8,0.2c1.1,0,2.5-0.2,3.9-1.1C39,44.6,40.2,42.7,40.8,40C40.8,40,40.8,40,40.8,40L40.8,40z
		 M36.7,44.8c-1.7,1.1-3.6,0.9-4.4,0.8c0.2-1.1,0.8-4.2,2.9-5.5c1.1-0.7,2.4-0.8,4-0.3c-1.4,0.9-3.3,2.1-4.2,2.2l0.1,1
		c0.2,0,0.4-0.1,0.6-0.2L35,44l0.9,0.6l1.6-2.5c0.7-0.4,1.4-0.8,2-1.2C38.9,42.7,38,44,36.7,44.8"/>
	<path class="st1" d="M41.2,24.6c0-8.7-7.1-15.8-15.8-15.8S9.5,15.8,9.5,24.6s7.1,15.8,15.8,15.8S41.2,33.3,41.2,24.6z M40.2,24
		h-6.3c-0.1-3.2-0.6-6.2-1.5-8.6c1-0.5,2-1.1,2.9-1.9C38.2,16.2,40.1,19.9,40.2,24z M25.9,9.8c2.1,0.3,3.9,2.2,5.2,5.2
		c-1.6,0.7-3.4,1.1-5.2,1.1V9.8z M24.9,9.8V16c-1.8-0.1-3.5-0.4-5.2-1.1C21,12,22.8,10,24.9,9.8z M24.9,17.1v7h-7
		c0.1-3,0.6-5.9,1.4-8.2C21.1,16.6,23,17,24.9,17.1z M24.9,25.1v7.4c-1.9,0.1-3.7,0.4-5.4,1.1c-0.9-2.4-1.5-5.3-1.5-8.5H24.9z
		 M24.9,33.5v5.9c-2-0.3-3.8-2.1-5-4.8C21.5,33.9,23.1,33.5,24.9,33.5z M25.9,39.3v-5.9c1.7,0.1,3.4,0.4,5,1.1
		C29.6,37.3,27.9,39.1,25.9,39.3z M25.9,32.5v-7.4h7c-0.1,3.2-0.6,6.2-1.6,8.5C29.6,32.9,27.8,32.5,25.9,32.5z M25.9,24v-7
		c1.9-0.1,3.8-0.5,5.5-1.2c0.8,2.3,1.4,5.1,1.4,8.2H25.9z M34.5,12.9c-0.8,0.6-1.6,1.1-2.5,1.6c-0.8-1.8-1.8-3.3-3-4.3
		C31.1,10.7,32.9,11.6,34.5,12.9z M18.8,14.5c-0.9-0.4-1.7-1-2.5-1.6c1.6-1.3,3.5-2.2,5.5-2.7C20.6,11.2,19.6,12.7,18.8,14.5z
		 M15.5,13.6c0.9,0.7,1.9,1.4,2.9,1.9c-0.9,2.4-1.4,5.4-1.5,8.6h-6.3C10.7,19.9,12.6,16.2,15.5,13.6z M10.6,25.1h6.3
		c0.1,3.4,0.6,6.4,1.6,8.9c-1,0.5-2,1.1-2.8,1.7C12.7,33.1,10.7,29.3,10.6,25.1z M16.5,36.4c0.8-0.6,1.6-1.1,2.4-1.5
		c0.8,1.7,1.7,3,2.8,4C19.8,38.4,18,37.6,16.5,36.4z M31.9,35c0.8,0.4,1.6,0.9,2.4,1.5c-1.5,1.1-3.3,2-5.2,2.5
		C30.1,38,31.1,36.6,31.9,35z M35.1,35.8c-0.9-0.7-1.8-1.3-2.8-1.7c1-2.5,1.6-5.6,1.6-9h6.3C40.1,29.3,38.1,33.2,35.1,35.8z
		 M40.8,40c4.1-4.1,6.4-9.6,6.4-15.4c0-12-9.8-21.8-21.8-21.8S3.6,12.5,3.6,24.6c0,11.1,8.3,20.4,19.2,21.7l0.1-1
		C12.5,44,4.6,35.1,4.6,24.6c0-11.5,9.3-20.8,20.8-20.8c11.5,0,20.8,9.3,20.8,20.8c0,5.5-2.2,10.7-6,14.6c-2.2-0.8-4.1-0.8-5.6,0.2
		c-3,1.9-3.4,6.5-3.4,6.7c0,0.2,0.1,0.5,0.4,0.5c0.1,0,0.8,0.2,1.8,0.2c1.1,0,2.5-0.2,3.9-1.1C39,44.6,40.2,42.7,40.8,40
		C40.8,40,40.8,40,40.8,40L40.8,40z M36.7,44.8c-1.7,1.1-3.6,0.9-4.4,0.8c0.2-1.1,0.8-4.2,2.9-5.5c1.1-0.7,2.4-0.8,4-0.3
		c-1.4,0.9-3.3,2.1-4.2,2.2l0.1,1c0.2,0,0.4-0.1,0.6-0.2L35,44l0.9,0.6l1.6-2.5c0.7-0.4,1.4-0.8,2-1.2C38.9,42.7,38,44,36.7,44.8z"
		/>
</g>
</svg>
