<?xml version="1.0" encoding="utf-8"?>
<!-- Generator: Adobe Illustrator 21.0.2, SVG Export Plug-In . SVG Version: 6.00 Build 0)  -->
<svg version="1.1" id="Layer_1" xmlns="http://www.w3.org/2000/svg" xmlns:xlink="http://www.w3.org/1999/xlink" x="0px" y="0px"
	 viewBox="0 0 50 50" style="enable-background:new 0 0 50 50;" xml:space="preserve">
<style type="text/css">
	.st0{clip-path:url(#SVGID_2_);fill:#263997;}
</style>
<g>
	<defs>
		<rect id="SVGID_1_" width="50" height="50"/>
	</defs>
	<clipPath id="SVGID_2_">
		<use xlink:href="#SVGID_1_"  style="overflow:visible;"/>
	</clipPath>
	<path class="st0" d="M25.6,12.2c-0.8,1.2-8.1,12.3-8.1,16.8c0,4.9,4,8.8,8.8,8.8c4.9,0,8.8-4,8.8-8.8c0-4.5-7.2-15.6-8.1-16.8
		C26.8,11.7,26,11.7,25.6,12.2 M26.4,36c-3.9,0-7-3.2-7-7c0-3,4.5-10.8,7-14.7c2.5,3.9,7,11.7,7,14.7C33.4,32.9,30.3,36,26.4,36"/>
</g>
</svg>
