<?xml version="1.0" encoding="utf-8"?>
<!-- Generator: Adobe Illustrator 21.0.2, SVG Export Plug-In . SVG Version: 6.00 Build 0)  -->
<svg version="1.1" id="Layer_1" xmlns="http://www.w3.org/2000/svg" xmlns:xlink="http://www.w3.org/1999/xlink" x="0px" y="0px"
	 viewBox="0 0 50 50" style="enable-background:new 0 0 50 50;" xml:space="preserve">
<style type="text/css">
	.st0{clip-path:url(#SVGID_2_);fill:#263997;}
</style>
<g>
	<defs>
		<rect id="SVGID_1_" width="50" height="50"/>
	</defs>
	<clipPath id="SVGID_2_">
		<use xlink:href="#SVGID_1_"  style="overflow:visible;"/>
	</clipPath>
	<path class="st0" d="M30.3,30.9V9.4c0-3.6-2.4-6.6-5.4-6.6c-3,0-5.4,3-5.4,6.6v21.5c-2.2,1.7-3.6,4.3-3.6,7.1c0,4.9,4,8.9,8.9,8.9
		s8.9-4,8.9-8.9C33.9,35.2,32.6,32.6,30.3,30.9 M25,45.2c-3.9,0-7.1-3.2-7.1-7.1c0-2.4,1.2-4.6,3.2-5.9c0.2-0.2,0.4-0.4,0.4-0.7v-22
		c0-2.6,1.6-4.8,3.6-4.8s3.6,2.2,3.6,4.8v22c0,0.3,0.1,0.6,0.4,0.7c2,1.3,3.2,3.5,3.2,5.9C32.1,42,28.9,45.2,25,45.2"/>
	<path class="st0" d="M26.8,34.4V10.5c0-1.3-0.8-2.3-1.8-2.3c-1,0-1.8,1-1.8,2.3v23.9c-1.6,0.7-2.7,2.3-2.7,4.1c0,2.5,2,4.5,4.5,4.5
		c2.5,0,4.5-2,4.5-4.5C29.4,36.6,28.3,35.1,26.8,34.4"/>
</g>
</svg>
