<?xml version="1.0" encoding="utf-8"?>
<!-- Generator: Adobe Illustrator 21.0.2, SVG Export Plug-In . SVG Version: 6.00 Build 0)  -->
<svg version="1.1" id="Layer_1" xmlns="http://www.w3.org/2000/svg" xmlns:xlink="http://www.w3.org/1999/xlink" x="0px" y="0px"
	 viewBox="0 0 50 50" style="enable-background:new 0 0 50 50;" xml:space="preserve">
<style type="text/css">
	.st0{clip-path:url(#SVGID_2_);fill:#FFFFFF;}
</style>
<g>
	<defs>
		<rect id="SVGID_1_" width="50" height="50"/>
	</defs>
	<clipPath id="SVGID_2_">
		<use xlink:href="#SVGID_1_"  style="overflow:visible;"/>
	</clipPath>
	<path class="st0" d="M25.1,12.8c-6.6,0-12,5.4-12,12c0,6.6,5.4,12,12,12s12-5.4,12-12C37.1,18.1,31.7,12.8,25.1,12.8 M25.1,35.2
		c-5.8,0-10.5-4.7-10.5-10.5c0-5.8,4.7-10.5,10.5-10.5S35.6,19,35.6,24.7C35.6,30.5,30.9,35.2,25.1,35.2"/>
	<path class="st0" d="M23.9,2.3v6c0,0.4,0.3,0.7,0.7,0.7c0.4,0,0.7-0.3,0.7-0.7v-6c0-0.4-0.3-0.7-0.7-0.7
		C24.2,1.6,23.9,1.9,23.9,2.3"/>
	<path class="st0" d="M24.6,40.5c-0.4,0-0.7,0.3-0.7,0.7v6c0,0.4,0.3,0.7,0.7,0.7c0.4,0,0.7-0.3,0.7-0.7v-6
		C25.4,40.8,25.1,40.5,24.6,40.5"/>
	<path class="st0" d="M9.7,25.5c0-0.4-0.3-0.7-0.7-0.7h-6c-0.4,0-0.7,0.3-0.7,0.7c0,0.4,0.3,0.7,0.7,0.7h6
		C9.3,26.2,9.7,25.9,9.7,25.5"/>
	<path class="st0" d="M47.8,24.7h-6c-0.4,0-0.7,0.3-0.7,0.7s0.3,0.7,0.7,0.7h6c0.4,0,0.7-0.3,0.7-0.7S48.2,24.7,47.8,24.7"/>
	<path class="st0" d="M13.2,35.9L9,40.1c-0.3,0.3-0.3,0.8,0,1.1c0.1,0.1,0.3,0.2,0.5,0.2c0.2,0,0.4-0.1,0.5-0.2l4.2-4.2
		c0.3-0.3,0.3-0.8,0-1.1S13.5,35.6,13.2,35.9"/>
	<path class="st0" d="M40.7,8.3l-4.2,4.2c-0.3,0.3-0.3,0.8,0,1.1c0.1,0.1,0.3,0.2,0.5,0.2c0.2,0,0.4-0.1,0.5-0.2l4.2-4.2
		c0.3-0.3,0.3-0.8,0-1.1C41.5,8.1,41,8.1,40.7,8.3"/>
	<path class="st0" d="M37.6,35.9c-0.3-0.3-0.8-0.3-1.1,0c-0.3,0.3-0.3,0.8,0,1.1l4.2,4.2c0.1,0.1,0.3,0.2,0.5,0.2
		c0.2,0,0.4-0.1,0.5-0.2c0.3-0.3,0.3-0.8,0-1.1L37.6,35.9z"/>
	<path class="st0" d="M9,8.3C8.7,8.6,8.7,9.1,9,9.4l4.2,4.2c0.1,0.1,0.3,0.2,0.5,0.2c0.2,0,0.4-0.1,0.5-0.2c0.3-0.3,0.3-0.8,0-1.1
		l-4.2-4.2C9.8,8.1,9.3,8.1,9,8.3"/>
	<path class="st0" d="M25.1,18.4c-3.5,0-6.4,2.9-6.4,6.4c0,3.5,2.9,6.4,6.4,6.4s6.4-2.9,6.4-6.4C31.5,21.2,28.7,18.4,25.1,18.4"/>
</g>
</svg>
